<svg width="14" height="14" viewBox="0 0 14 14" fill="none" xmlns="http://www.w3.org/2000/svg">
<path d="M13.0667 0.533325L0.529974 4.71199C0.465085 4.7335 0.408377 4.77444 0.367537 4.82926C0.326698 4.88408 0.3037 4.95013 0.301662 5.01846C0.299625 5.08679 0.318646 5.1541 0.356147 5.21125C0.393647 5.26841 0.447815 5.31265 0.511307 5.33799L6.3333 7.66666L9.2833 13.5667C9.31332 13.6267 9.36079 13.6763 9.41948 13.709C9.47818 13.7416 9.54537 13.7558 9.61224 13.7496C9.67912 13.7434 9.74256 13.7171 9.79426 13.6743C9.84596 13.6314 9.8835 13.5739 9.90197 13.5093L13.4933 0.940658C13.51 0.882268 13.5103 0.820443 13.4944 0.761856C13.4785 0.70327 13.4468 0.650148 13.4029 0.608223C13.359 0.566298 13.3045 0.537164 13.2452 0.523964C13.186 0.510765 13.1242 0.514001 13.0667 0.533325Z" fill="white"/>
</svg>
