<svg width="705" height="221" viewBox="0 0 705 221" fill="none" xmlns="http://www.w3.org/2000/svg">
<path fill-rule="evenodd" clip-rule="evenodd" d="M181.053 102.469C181.23 102.568 181.387 102.666 181.535 102.764H168.009C165.275 102.764 163.032 105.007 163.032 107.742C163.032 110.476 165.275 112.719 168.009 112.719H183.168C187.348 113.585 198.503 111.352 221.885 111.913C231.496 112.139 235.47 112.031 219.032 108.696C210.386 106.945 212.786 111.47 205.586 106.148C202.979 104.22 199.595 105.312 195.572 104.122L184.604 102.873L184.614 102.764H183.62L181.053 102.469ZM390.32 103.04H381.309V103.059L378.565 103.01C376.627 104.201 373.518 104.22 372.269 106.148C368.807 111.47 369.957 106.945 365.806 108.696C357.907 112.021 359.816 111.883 364.439 111.913C373.754 111.972 379.214 113.113 381.791 113.004H390.329C393.064 113.004 395.307 110.762 395.307 108.027C395.297 105.283 393.054 103.04 390.32 103.04ZM356.658 175.025L364.636 191.807L338.244 182.009C337.998 182.226 337.752 182.471 337.516 182.767C335.372 185.442 338.559 187.587 339.916 189.475C333.335 194.039 326.184 197.827 318.58 200.709L315.167 215.611C314.832 217.854 315.334 221.651 310.426 219.212L303.255 217.126C300.372 216.329 301.031 216.654 302.389 213.703C307.16 203.315 309.353 192.348 313.308 181.635C305.202 183.858 283.778 175.487 289.936 171.976C287.929 171.897 313.209 176.186 302.802 170.235C300.756 169.064 302.359 167.116 306.343 167.333C313.859 170.903 317.026 170.166 321.679 166.379C330.974 158.814 294.559 169.743 274.767 164.057C267.911 172.389 259.855 175.173 255.448 186.121C253.973 189.79 257.297 191.659 261.025 191.541C267.646 185.059 270.852 180.465 276.489 174.14C280.02 170.166 284.722 168.218 279.696 180.032C273.233 195.24 273.154 200.384 271.138 207.408C266.495 206.188 255.123 203.227 250.599 201.653C240.339 198.082 230.837 192.869 222.416 186.337C223.931 185.708 223.852 185.619 222.849 184.399C222.672 184.881 222.495 185.354 222.18 186.15C219.17 183.799 220.154 184.567 217.921 181.301C219.141 180.14 221.433 180.524 221.029 177.897C221.905 177.592 222.652 177.356 223.4 177.042C222.583 176.687 219.642 175.792 219.209 176.884C218.462 178.743 217.183 176.845 216.436 178.124C215.786 179.225 214.311 178.979 213.937 178.881L189.109 185.767L201.789 164.647C191.942 150.571 185.647 133.829 184.201 115.719H204.986L205.497 119.615C209.54 145.603 226.184 167.421 248.985 178.635L273.557 157.191C264.626 156.099 253.146 152.656 250.313 149.391C250.658 148.731 249.851 147.994 250.884 147.895C253.687 147.63 251.326 145.298 252.045 145.072C252.802 144.836 254.425 145.249 256.323 145.967C260.14 147.413 263.632 145.653 266.623 144.659L263.131 139.387C259.422 139.79 255.143 140.577 251.002 139.573C247.087 138.629 248.975 134.586 248.995 134.576C253.294 133.563 251.651 132.737 252.654 132.894C250.559 129.55 245.651 124.828 244.569 121.798C244.303 121.061 246.92 115.031 247.48 114.323C246.093 113.545 242.926 113.939 242.326 113.467C241.588 112.886 237.103 100.207 237.299 98.9182C237.722 96.1246 243.506 94.0392 243.949 92.1997C244.441 87.5961 231.387 95.1114 234.053 71.4147C234.388 68.4047 235.607 66.3881 235.066 64.4306C235.047 59.5319 233.089 59.8664 235.43 54.7611C232.135 53.7971 216.209 24.2377 222.161 24.2082L226.076 24.1885C234.122 41.4815 254.868 48.8689 248.031 55.8727C247.638 56.276 244.51 55.3513 243.309 56.2563C234.919 62.6305 237.85 73.5886 245.897 80.7104L245.808 75.9101C247.598 74.3854 252.782 71.9852 254.71 69.8211C255.104 64.3814 254.287 63.4765 254.032 58.6073C254.061 58.6073 254.081 58.6073 254.11 58.6073V58.1843L260.347 57.4269C260.514 61.1451 261.232 63.4863 261.96 66.8209L269.406 65.3848C258.714 59.8565 264.685 49.0755 254.14 55.5874C253.786 55.3218 248.71 39.3273 247.992 37.3993C240.831 39.9371 234.014 34.8712 232.046 29.7856C229.686 23.6869 231.26 13.7321 243.978 10.6434L287.762 0C295.552 3.99371 298.228 9.50229 299.31 14.8928C300.058 13.3288 300.874 11.7549 301.828 10.0236C309.816 11.5287 313.091 12.7878 320.282 16.0831C320.528 15.7093 323.872 8.02678 331.584 4.96755C337.595 2.58706 336.503 2.09523 341.018 5.53809C344.982 8.55796 350.589 11.3713 356.324 13.8009C363.603 22.1327 349.31 34.3892 359.639 44.9145C361.144 46.4491 362.068 44.767 363.839 45.4064C376.204 49.9018 373.646 65.7192 374.286 67.6472C378.683 81.0842 382.194 96.6656 382.47 100.276H363.101C362.55 93.9703 361.773 89.2094 360.003 83.8483C361.232 83.0516 364.026 79.7956 363.554 79.166C363.082 78.5266 359.904 80.4842 358.852 80.6514L358.822 80.5629L358.448 80.7301C356.245 81.4875 354.632 82.8155 352.655 84.0943C348.189 86.9863 360.337 98.4264 362.57 104.358L359.806 113.221C359.098 115.503 358.38 116.91 356.284 117.274C353.009 117.834 350.235 117.697 354.779 121.907C356.55 123.549 357.514 125.625 356.648 127.012L351.937 134.626C350.825 136.416 352.123 138.964 349.861 139.534C347.136 140.223 342.69 142.023 341.647 145.239L338.667 154.417C335.942 162.827 328.446 161.096 323.666 176.107C345.139 163.703 360.268 141.551 362.983 115.69H368.423C368.393 115.847 368.374 116.083 368.325 116.231C368.944 116.231 369.564 116.31 370.184 116.388C370.184 116.152 370.184 115.926 370.184 115.69H370.164H374.886C375.21 117.628 375.496 119.408 375.84 121.189C378.84 120.087 379.007 120.028 378.024 115.69H382.43C382.096 119.88 381.506 124.002 380.66 128.035C377.266 126.373 374.069 126.668 370.331 127.612C372.033 128.743 378.329 134.016 378.358 134.006C374.492 151.073 367.567 163.565 356.658 175.025ZM404.78 143.439V142.072C404.74 140.508 404.898 138.983 405.065 137.419C404.74 136.819 404.868 136.268 405.143 135.717C405.183 133.74 405.222 131.753 405.222 129.815L405.301 127.14C405.045 126.068 405.596 126.481 405.34 125.477C404.878 123.648 405.183 122.802 405.045 120.795C404.848 120.834 404.642 120.913 404.425 121.002C404.632 120.884 404.839 120.795 405.035 120.726C404.937 119.182 404.73 117.638 404.73 116.123C404.209 114.421 404.445 112.67 404.484 110.919C404.484 110.408 404.484 109.857 404.484 109.355C404.327 105.253 404.484 101.112 404.288 97.0099C404.042 91.4324 404.17 85.855 404.002 80.2874C403.884 77.5233 404.002 74.7592 404.002 71.9951C404.002 70.7556 403.806 69.5064 403.884 68.2178C404.081 64.9028 404.042 61.5878 404.081 58.263C404.12 55.8628 404.278 55.6366 406.176 55.6366C408.35 55.5874 410.524 55.548 412.649 55.6366C413.731 55.6858 414.705 55.1251 415.787 55.0857C416.475 55.0365 416.751 54.2988 416.751 53.561C416.751 50.01 416.908 46.4196 416.554 42.9177C416.357 40.9798 416.229 40.9798 414.587 40.5667H412.777C412.334 40.4782 411.891 40.3798 411.449 40.3404C409.157 40.8028 406.826 40.7536 404.534 40.5667C403.412 40.4782 402.32 40.5667 401.238 40.5667C397.254 40.7044 393.271 40.8421 389.336 40.429C387.516 40.2618 387.211 41.0389 386.444 40.1536C383.994 40.1536 384.349 40.3798 381.457 40.1044C380.935 40.1044 380.414 40.1044 379.893 40.1044C379.607 40.1929 379.371 40.1044 379.086 39.9175L377.315 39.9667C375.761 40.37 377.266 49.705 377.355 52.1347C377.394 53.3348 377.64 54.3971 378.397 55.2234C379.568 55.2234 380.689 55.2234 381.86 55.2726C382.263 55.1841 382.627 55.2234 382.942 55.4989C383.817 56.0104 388.775 54.0233 388.933 56.8858C389.129 60.0139 389.129 63.1518 389.09 66.3291C389.051 66.6931 389.011 67.1161 388.972 67.5292C389.169 68.0407 389.218 68.5916 389.257 69.1916C389.542 72.1918 389.66 72.3689 391.992 72.8804C392.297 73.8149 390.546 73.0673 390.546 74.169C390.546 77.3069 394.057 75.3199 395.297 76.5691C393.812 78.6447 392.198 79.1955 390.152 77.4446C390.231 79.3824 390.31 80.9957 390.349 82.6089C390.388 83.6713 390.949 83.9861 391.716 84.173C392.484 84.3107 393.644 83.6614 393.851 84.9599C393.969 85.9731 392.641 85.7862 392.159 86.4846C391.52 87.36 390.31 86.9469 389.542 88.0978C390.91 88.3732 391.195 90.2225 392.474 90.5373C393.231 90.7537 393.162 92.8883 393.28 93.9507C391.923 94.59 391.372 91.8751 390.142 94.2753C389.7 95.1016 389.946 95.4753 390.546 95.9377C391.392 96.6263 392.198 97.2263 393.566 97.5017C391.638 98.1509 390.231 98.4952 389.759 100.581C393.084 100.581 393.477 101.476 394.303 101.732C396.408 101.82 398.553 102.115 400.461 102.607C400.146 102.636 399.832 102.676 399.517 102.715C398.72 104.122 398.848 105.617 398.887 107.073C398.946 108.401 399.468 108.598 401.838 108.647C403.294 108.686 403.934 109.257 403.776 110.457C403.619 111.608 402.665 112.011 400.855 111.617C398.818 111.253 398.818 111.253 398.346 112.473C396.536 117.264 399.409 119.644 397.127 119.654C395.749 119.664 396.202 118.651 396.172 118.07C396.025 116.9 396.035 115.749 395.966 114.578C395.907 113.978 396.054 113.663 395.562 113.378C395.09 113.85 394.549 114.254 393.959 114.578C393.998 115.513 392.07 115.631 391.441 115.611C391.451 118.434 391.49 121.257 391.598 124.061C391.706 126.805 391.274 129.471 390.398 132.068C390.31 132.343 390.28 132.619 389.719 132.717C389.749 133.16 389.798 133.593 389.857 134.035C390.103 135.786 389.818 137.586 389.897 139.337C390.093 143.764 390.054 148.23 390.093 152.696C390.093 152.883 390.093 153.02 390.093 153.207C390.497 155.184 390.457 157.171 390.093 159.149C390.133 159.611 390.172 160.024 390.211 160.437C390.408 160.899 390.408 161.313 390.251 161.726C390.29 162.237 390.329 162.739 390.369 163.201C390.546 165.533 390.792 165.385 393.507 165.454C393.516 163.398 394.146 162.493 395.848 162.975C397.549 163.388 397.55 163.388 397.864 161.313C398.307 158.194 398.307 155.076 397.864 151.948C397.736 150.974 397.363 149.312 398.435 149.174C399.576 149.036 399.251 150.768 399.32 151.741C399.507 153.679 399.576 155.627 399.694 157.565C399.753 158.185 399.694 159.09 400.009 159.434C402.556 162.09 400.609 164.893 401.966 165.326C402.468 165.464 402.783 165.188 403.097 164.775C403.668 163.939 403.599 162.906 403.599 162.001C403.343 155.066 403.097 148.131 402.714 141.265C402.458 136.691 402.655 132.186 403.215 127.75C403.274 127.199 403.274 126.638 404.032 126.5C404.229 132.147 404.484 137.793 404.78 143.439ZM433.719 126.166C436.71 124.297 440.772 127.071 442.307 125.409C443.271 124.356 441.087 121.444 441.333 114.864C441.431 112.267 441.293 111.194 438.628 115.729C437.221 118.12 441.048 117.323 436.601 119.438C434.988 120.205 435.952 121.08 434.978 122.202L433.719 126.166ZM456.865 161.372C457.052 163.782 456.934 164.549 454.77 164.549C451.189 164.549 447.609 164.549 444.067 164.549C443.822 164.549 443.585 164.46 443.379 164.411C442.208 157.634 442.651 150.768 441.972 143.951C441.648 143.862 441.412 143.725 441.205 143.725C438.834 143.675 436.503 143.675 434.122 143.725C432.952 143.725 432.676 144 432.47 145.387C431.693 151.289 431.309 157.339 430.621 163.034C430.463 164.273 430.296 164.51 429.214 164.51C426.627 164.51 420.961 166.949 421.443 164.401C421.64 163.359 423.263 155.666 421.305 158.362C420.843 159.001 420.794 164.608 417.872 164.46C417.754 164.451 417.626 164.372 417.312 164.234C417.351 163.723 417.351 163.172 417.43 162.67C418.394 154.978 419.358 147.325 420.322 139.672C420.567 137.734 420.686 135.796 420.882 133.868C421.04 132.393 421.168 130.917 422.692 130.415C422.692 128.478 421.748 128.969 422.495 123.274C423.961 111.972 424.561 101.8 425.594 90.6062C427.04 90.6062 427.207 89.4061 427.325 88.206C427.571 86.2288 427.807 84.2418 426.804 82.4023C426.686 82.1761 426.686 81.8515 426.607 81.4777C428.594 80.1596 426.892 77.7692 428.663 74.5231C429.253 73.4312 429.263 71.5327 429.263 70.1949C429.539 70.0376 431.486 69.3982 430.266 68.444C429.381 67.7554 429.263 66.8308 429.224 65.7684C429.145 64.3421 428.939 62.9551 428.978 61.5288C428.978 60.3287 429.263 59.1778 429.46 58.0269C429.539 57.24 430.148 56.4137 429.421 55.6759C430.03 50.2952 429.499 51.7314 430.827 50.8854C430.099 50.1969 429.981 49.3214 430.099 48.3082C431.299 38.2551 429.204 40.852 438.628 40.429C439.631 40.3798 439.956 41.2159 440.438 41.9537C442.326 41.2356 440.851 40.2322 445.386 40.5273C446.074 40.5765 446.428 41.0782 446.507 41.8651C446.625 43.5669 446.753 45.2785 446.91 47.3049C445.582 46.5179 444.618 47.118 443.576 47.7672C443.733 48.2295 443.9 48.6427 444.097 49.1542C445.061 48.8787 445.946 48.6033 446.95 48.3279C447.028 48.9279 447.146 49.3411 447.196 49.7542C451.091 90.734 453.166 116.093 456.865 161.372ZM276.833 109.571L295.611 106.414L297.854 111.529L278.692 113.231L276.833 109.571ZM290.811 20.9424C290.85 21.8572 289.837 27.051 290.191 27.0412C292.857 26.9822 301.376 32.4612 300.835 42.7111C302.369 40.6159 304.937 38.0288 306.452 35.9336C303.904 26.7461 296.703 22.9098 290.811 20.9424ZM277.433 26.8051C277.256 25.3689 276.912 23.9623 276.292 22.6835C262.678 28.7626 259.235 47.1967 268.354 58.0761C272.928 63.5355 284.152 69.1621 293.182 66.1127C307.002 61.4501 307.543 53.9938 309.098 52.479C311.763 54.9382 315.777 68.385 320.705 70.5983C322.102 71.2278 322.81 69.9785 323.381 68.5817C322.574 65.7783 312.363 48.623 309.707 46.6458C307.081 47.7082 305.291 49.6263 303.835 51.151C295.474 64.7946 280.758 62.7485 274.138 56.0399C265.285 47.0983 267.095 33.4842 277.433 26.8051ZM219.328 31.6349C214.901 35.3631 210.809 39.465 207.091 43.9014C208.556 43.6849 209.904 43.4587 211.33 43.7046C213.042 44.0292 213.898 45.2195 213.504 46.9901C213.239 48.1115 212.717 48.4361 211.861 47.777C210.878 46.9901 209.953 46.7245 208.832 47.5803C207.976 48.1115 206.461 47.3147 206.068 46.2622C205.979 45.9769 205.91 45.7113 205.841 45.4261C193.575 60.6632 185.706 79.5989 184.171 100.295H204.868C206.451 82.2449 213.662 65.9455 226.361 52.656C222.534 46.6556 220.105 38.9043 219.328 31.6349ZM375.83 91.7276C375.673 93.2719 375.525 94.7474 375.368 96.2131C375.132 96.2131 374.905 96.1344 374.669 96.1344C374.364 94.59 373.892 93.1244 375.83 91.7276ZM373.509 77.3266C373.351 77.484 373.204 77.7102 373.046 77.8676C372.889 77.5528 372.663 77.3266 372.505 77.0905C373.145 76.6675 373.174 76.6577 373.509 77.3266ZM376.843 124.779C376.528 124.779 376.223 124.936 375.919 124.858C375.555 124.72 375.574 123.854 376.223 123.854C376.607 123.854 376.922 124.09 377.227 124.159C377.069 124.395 376.991 124.543 376.843 124.779ZM379.932 99.233C380.394 98.4559 380.788 97.6099 381.329 96.5279C382.726 98.5444 381.791 99.0854 380.709 99.7051C380.473 99.5478 380.247 99.3904 379.932 99.233ZM372.967 120.834C371.728 120.451 370.951 120.215 369.721 119.831C371.807 118.975 371.807 118.975 372.967 120.834ZM196.919 63.506C195.818 63.4174 195.651 61.1747 196.595 60.9386C197.529 60.7123 198.385 63.506 196.919 63.506ZM201.326 65.2176C200.667 65.2176 200.077 65.0897 200.539 63.7716C200.343 62.7879 199.949 61.5386 198.897 60.8796C198.041 60.3484 197.647 59.9549 198.365 59.0401C198.828 58.5089 197.972 57.2596 199.221 57.0629C200.402 56.935 201.395 57.5842 202.379 58.0466C203.018 58.2531 201.838 61.3911 204.356 61.0763C204.75 61.0074 204.946 61.4698 204.818 61.9321C204.622 62.9158 202.182 65.1585 201.326 65.2176ZM259.54 26.2051C261.399 24.0115 263.583 22.8704 265.236 21.1982C267.193 19.2111 268.029 17.3717 261.203 20.0473C256.225 21.9949 252.871 29.7758 253.618 32.6875C254.828 37.3599 254.543 40.2323 257.002 49.2525C265.816 45.3965 254.937 31.6546 259.54 26.2051ZM277.768 143.528C276.42 144.167 276.548 147.413 278.004 147.207C288.539 145.721 291.569 151.623 281.358 156.286C282.017 160.014 298.385 153.974 313.259 159.788C312.954 159.778 318.551 156.07 315.324 154.447C312.767 155.863 310.662 154.142 308.399 152.46C307.494 151.791 307.199 151.151 308.763 150.925L311.252 151.023C311.97 148.033 311.271 148.387 311.37 145.456C311.576 144.895 313.77 145.407 313.986 145.731C315.423 147.905 314.124 148.751 313.121 151.564C316.613 149.282 319.2 144.226 319.525 144.659C320.351 145.761 321.01 153.128 319.416 156.807C322.19 157.014 326.351 153.876 328.358 150.374C331.811 144.354 337.791 140.626 346.428 136.062C346.92 135.806 348.022 132.039 349.025 130.888L352.271 127.15C353.078 126.225 352.35 124.661 351.602 124.149L346.467 120.648C344.618 124.041 335.814 123.874 331.004 127.327C321.118 134.429 320.331 140.813 315.737 141.885C308.429 139.937 299.3 141.088 298.789 141.039L289.385 140.292L277.768 143.528ZM310.16 137.065C311.97 137.596 317.301 131.458 308.694 132.825C308.084 132.924 304.927 131.281 304.169 130.533C303.707 130.081 303.874 129.796 304.287 129.914C308.93 131.193 308.153 122.408 307.73 121.474C307.425 120.244 308.212 120.825 308.448 121.031C309.717 122.162 311.232 123.756 310.809 127.445C314.35 128.773 314.242 122.93 313.396 118.454C313.357 117.706 314.223 117.923 314.478 118.277C315.364 119.487 317.685 130.258 316.298 134.35C326.577 133.376 320.961 125.487 341.234 117.893C344.077 116.831 354.819 114.185 354.789 109.571L354.74 101.83L344.116 89.593C339.719 89.5635 335.745 91.8948 335.716 98.751C335.676 108.745 318.816 104.368 312.54 113.959C311.891 114.952 303.166 117.785 287.26 116.113L274.03 119.536C271.659 120.146 270.921 124.661 270.931 124.661C274.325 123.313 280.974 122.084 283.66 121.936C288.755 121.641 288.863 133.052 285.44 135.196C281.073 137.931 273.715 136.799 273.459 137.281C272.102 137.419 274.217 140.872 277.905 139.603C283.975 137.498 296.674 133.101 310.16 137.065ZM355.97 76.5691C365.078 75.2707 365.728 70.5687 356.196 74.9166C354.15 75.8511 351.169 76.3724 350.422 76.0675C349.684 75.7625 349.723 75.133 350.235 75.2412C351.523 75.5068 354.032 74.3559 354.435 74.2673C350.373 70.8048 352.173 70.3818 349.881 65.4143C348.927 64.0765 350.127 64.2437 350.461 64.47C353.363 66.4373 354.661 69.3588 356.038 74.1296C358.517 69.8113 357.111 64.047 354.612 60.1221C354.189 59.2368 355.261 59.0106 355.724 59.3057C357.229 60.25 359.639 63.0338 359.373 68.6604C359.334 69.467 359.127 70.3228 359.078 71.1294C359.58 70.1064 363.062 62.119 363.682 62.1682C364.665 62.2469 365.069 64.1847 365.787 64.6372C365.993 64.7651 369.741 64.3224 369.653 63.624C368.334 61.6763 366.81 57.0334 364.911 54.3578C357.209 43.5177 343.634 60.1615 339.168 64.47C334.555 68.9162 334.575 70.6573 320.311 76.7659C315.944 78.6349 311.675 78.9201 305.97 82.3531C303.215 84.0156 296.585 86.5731 296.949 89.3766C297.195 91.3046 293.86 94.0097 293.477 93.9507L290.919 83.1991L271.541 88.2945L274.866 104.328C278.023 104.161 283.886 103.866 283.857 103.64L283.443 100.453C294.618 96.0065 303.953 88.8159 308.793 86.1501C323.774 76.9921 326.391 90.0356 320.174 96.8131C316.908 100.384 308.557 106.247 304.346 106.443C304.258 106.532 304.701 107.142 304.661 107.26C320.99 108.194 331.407 85.6091 334.821 90.1143C335.175 90.5767 327.237 99.1346 326.017 99.2822C326.371 99.4986 325.918 99.8625 326.263 99.9117C328.663 100.286 337.349 89.2684 338.568 86.6518C339.896 84.3402 352.684 77.7004 355.97 76.5691ZM329.243 41.9733C325.722 47.7377 328.279 51.2691 320.803 53.0987C332.165 86.5534 343.733 28.4183 343.516 40.547L344.136 43.921C348.366 43.1341 351.002 24.9951 350.205 19.2013C349.546 14.3813 342.129 14.2534 337.85 9.60065C333.866 5.27248 323.99 19.8112 311.134 24.946C304.878 27.4445 309.235 31.3497 308.675 32.4514C309.688 32.5596 313.308 25.2902 318.718 26.992C325.397 29.0872 323.499 39.0027 322.338 39.4355C315.757 41.9242 311.754 44.5407 311.527 45.8785C325.427 51.1707 323.282 39.042 329.814 36.7402C336.05 34.1236 339.523 38.3534 346.576 29.2053C346.094 32.5104 343.979 35.6778 340.457 36.4254C337.536 37.2025 333.237 38.6879 329.243 41.9733ZM267.459 113.87L251.907 115.955L259.117 128.792C259.383 129.196 259.638 129.619 259.884 130.081C260.593 129.943 265.314 128.743 265.55 128.34C268.983 122.399 269.701 120.274 267.459 113.87ZM247.254 96.5672L262.658 92.485L266.475 106.768L249.398 109.768L247.254 96.5672ZM248.946 77.8086C252.566 75.8412 257.189 74.0214 261.635 72.8607C262.353 81.8712 260.278 82.5597 264.065 84.6648L248.621 88.5405L248.946 77.8086ZM290.231 77.5135L270.488 81.576L269.485 70.1654L287.624 72.0934L290.231 77.5135ZM295.592 77.0216C294.736 72.6049 295.474 75.074 294.047 70.736L307.081 65.5422C310.396 70.8835 310.573 70.0474 312.501 73.4017C308.547 73.864 298.759 75.6543 295.592 77.0216ZM274.669 48.1213C277.433 47.6491 277.679 47.3147 280.522 47.1081C283.217 46.9114 285.135 46.9409 286.896 47.6491L296.536 55.7841L290.231 57.4269L286.178 48.2689L281.712 47.9147L285.903 58.1646C279.105 57.6236 276.243 53.4331 274.669 48.1213ZM280.65 31.6448C278.2 31.4382 282.843 24.9361 279.873 18.857C278.938 16.9487 284.043 13.4567 286.306 17.7356C288.027 20.9818 285.834 32.0874 283.286 31.871L280.65 31.6448ZM251.828 18.375C256.304 31.2612 244.874 37.3698 237.998 29.7266C235.696 27.1592 234.693 16.2995 242.808 16.4077C242.828 16.4077 244.146 19.1915 243.614 19.4669C234.604 25.9296 250.756 35.6778 247.992 21.5326L246.526 16.1126C250.392 15.365 286.365 3.15759 287.476 4.86918C293.428 4.68228 299.418 28.9692 285.775 10.2007C274.079 13.2501 263.809 15.6798 251.828 18.375ZM338.362 32.5104C337.811 32.3038 337.85 32.0678 338.224 31.9497C341.215 30.9562 339.828 23.5492 339.601 22.2015C338.883 21.2965 339.788 21.4146 340.034 21.5621C342.238 22.9098 341.333 23.9524 341.313 24.218C341.264 24.9755 345.789 22.3786 343.152 18.6209C342.838 18.0209 343.634 17.8733 343.988 18.0701C350.353 21.69 341.854 33.8187 338.362 32.5104ZM41.5187 44.1866C41.5581 43.7735 41.5581 43.3603 41.5974 42.9472C41.2236 41.9832 41.0957 40.8913 40.3088 40.2519C40.0629 40.2519 39.8465 40.2519 39.6006 40.2519C37.4758 40.3896 35.3511 40.4782 33.2755 40.0257C32.9017 40.0257 32.5673 40.0257 32.2328 40.0257C30.8163 40.0749 29.3999 40.5274 27.944 40.1634C27.7374 40.2126 27.4817 40.2519 27.2751 40.3011C26.6948 43.2718 26.1537 46.2031 25.9472 49.2624C25.7799 51.2297 25.6127 53.1971 25.2389 55.1152C24.8258 57.1711 24.8258 59.227 24.6979 61.2829C24.8258 62.0108 24.8651 62.7879 24.3635 63.4273C24.0683 66.2602 24.1569 69.1424 24.0683 72.0246C24.3634 72.4771 24.1962 72.7132 23.8224 72.8902L23.7437 72.841L23.665 75.8117C23.7929 76.4511 23.7929 77.0511 23.4585 77.5922C23.4191 79.6972 23.5372 81.8416 23.2126 83.9467C23.3798 84.3598 23.4191 84.8123 23.3798 85.2747C24.088 86.1403 24.0487 86.2387 23.0453 86.6912C22.7994 87.7437 22.8781 88.8356 22.8388 89.8881C23.547 90.2816 23.665 90.0455 23.5863 91.5308C23.547 92.6719 23.7536 93.9113 22.7994 94.7278C22.701 94.8753 22.6322 95.4262 21.7961 95.4557C21.1272 95.5049 20.3009 95.6426 20.0845 94.59C19.8386 93.449 20.7534 93.3998 21.2944 92.9867C21.2944 92.3965 21.255 91.8456 21.255 91.2947C20.714 90.9701 20.714 90.6554 21.255 90.3799C21.2157 89.7897 21.255 89.1897 21.0091 88.6388C20.1632 88.5208 19.8189 87.783 20.6353 87.4092C20.6747 87.2715 20.714 87.0846 20.7632 86.9567C20.6845 86.819 20.6353 86.6813 20.596 86.5928C20.0943 86.3665 20.0156 86.0419 20.4681 85.6288C20.3894 84.8025 20.3009 83.9861 20.2222 83.1598C20.0156 82.8843 19.9271 82.5696 20.0156 82.2449C20.0845 80.9662 19.573 81.6842 19.8484 80.553C19.8484 80.1399 19.8484 79.7267 19.809 79.3136C19.6418 78.9988 19.6812 78.6742 19.8484 78.3988C19.809 77.2085 19.1401 76.2052 19.2287 75.0149C18.9336 74.4641 18.8942 73.8739 18.9828 73.2345C19.0614 72.0049 18.8155 71.8377 18.9828 70.2638C19.1106 69.0145 18.4909 69.0637 18.5696 67.844C18.6975 65.2372 18.1565 62.6305 18.1958 59.9844C18.1958 57.9679 17.6548 56.0989 17.281 54.1316C16.7006 50.8854 16.0711 47.6885 15.6186 44.3932C15.1563 40.9208 14.8316 40.37 11.6642 39.9076C11.0839 39.8191 10.4543 39.7699 9.91328 39.9568C6.81471 40.9405 -0.661205 38.0682 0.0470398 42.5636C0.460183 45.2195 0.755288 47.8656 1.50288 50.4723C2.0439 52.3904 2.50622 54.407 2.79149 56.4137C3.33251 60.25 4.4539 63.9585 4.82769 67.844C4.82769 68.0702 4.86704 68.2964 4.95557 68.4833C5.90973 70.6278 6.24418 73.0082 6.57863 75.3887C6.74586 75.6642 6.82455 75.979 6.82455 76.3036C7.23769 76.8052 7.19834 77.4938 7.44426 78.0447C7.90659 79.1365 8.67385 78.5758 8.605 77.9069C8.5263 76.6282 9.18537 75.9002 10.0215 75.251C9.85426 75.0248 9.77557 74.7985 9.64769 74.7002C9.31325 74.4247 8.77222 74.4247 8.86075 73.7362C9.06732 72.0541 10.5822 73.0279 12.6872 71.7688C13.9955 70.9917 14.4579 74.0706 12.9823 74.287C12.9233 74.2969 11.0543 73.864 11.8118 75.1133C12.4315 76.0773 12.1069 76.579 11.2708 76.6183C10.2281 76.6675 9.98214 77.3069 10.0608 78.3988C10.3953 79.0382 9.89361 79.4513 9.85427 80.0022C9.66737 82.1171 11.0543 79.894 10.8084 82.3827C10.7297 83.1794 10.8674 85.5599 10.1002 85.7173C8.72304 85.9927 9.14602 87.0846 9.35259 87.9601C9.72639 89.6028 9.48047 91.3931 10.0608 92.9473C10.6412 93.2621 10.7691 93.6752 10.3559 94.2753C10.3559 95.1409 10.5625 96.0164 10.7691 96.8328C11.0937 97.5017 12.343 98.1313 11.015 100.305C11.1429 100.718 11.3101 101.131 11.4281 101.584C12.5495 102.725 12.6774 103.276 12.0479 104.968L13.543 114.519C14.3792 117.765 14.9595 121.149 15.0382 124.572C15.2054 131.015 15.3333 137.468 15.412 143.961C15.4514 147.207 15.6186 150.453 15.3727 153.748C15.412 156.443 15.5006 159.139 15.5792 161.844C15.6579 163.447 15.7858 163.585 17.0351 164.087C18.6581 164.687 20.2812 164.5 21.8649 163.9C22.2387 162.296 22.1108 160.654 22.0321 159.05C21.8452 155.656 19.1205 159.365 19.2385 155.617C19.2779 154.338 19.7795 153.837 20.7829 154.151C21.9043 154.427 21.9043 154.427 22.1108 153.05C22.4059 150.994 22.4059 148.938 22.1108 146.882C22.0321 146.243 21.7764 145.141 22.4846 145.053C23.2322 144.964 23.0257 146.105 23.065 146.744C23.1142 147.315 23.2716 151.555 23.5273 151.82C25.2094 153.571 23.9208 155.42 24.8159 155.706C25.8291 156.03 25.898 154.024 25.898 153.512C26.0357 145.436 26.557 145.692 27.0292 148.879C27.4719 151.889 27.8555 157.516 27.8161 161.244C29.4392 162.159 30.0196 161.795 30.0196 159.739C30.0589 158.46 29.9802 157.181 29.9802 155.902C29.6851 155.312 29.7343 154.673 29.7343 154.024C29.6556 145.839 29.2326 137.655 29.3605 129.471C29.4392 125.999 29.0261 122.477 30.0294 119.143C30.777 116.536 30.8655 113.654 32.0656 111.234C32.1935 111.008 32.1935 110.683 32.2328 110.457C32.3607 106.02 33.069 101.722 33.5608 97.3345C33.4329 97.0099 33.4821 96.6951 33.6887 96.4197C33.9838 95.6623 33.6985 94.3933 33.6493 93.8129C34.0428 93.5277 34.2395 93.2129 34.151 92.5833C33.9936 91.5505 32.5083 91.6095 34.2789 90.3406C34.3182 89.9274 34.3576 89.5143 34.4068 89.111C33.8264 88.4716 33.246 87.6945 33.3641 86.5928C33.5706 84.9894 33.5706 83.2089 34.5346 81.8416C34.8297 81.4777 35.2822 81.4285 35.656 81.34C35.8232 80.376 35.9905 79.4218 36.1577 78.4185C35.8232 78.0053 35.9905 77.7299 36.3643 77.5036C36.9053 74.1198 37.4463 70.736 38.0267 67.3521C37.8595 66.7127 37.9873 66.2111 38.5284 65.9356C38.5677 65.1094 38.607 64.3323 38.6956 63.5158C38.6562 63.1518 38.6956 62.8272 38.9021 62.601C38.9415 61.8731 38.9808 61.1845 39.03 60.4959C38.9907 58.0761 39.4038 55.7841 40.1514 53.5512C40.2301 52.5872 40.3186 51.633 40.4465 50.669C40.4072 49.2033 40.4465 47.7869 41.2335 46.5966C41.2335 46.2327 41.2728 45.8195 41.2728 45.4556C41.017 44.9637 41.017 44.5112 41.5187 44.1866ZM153.569 131.055C153.776 130.976 153.972 130.819 154.11 130.75C154.317 131.134 154.513 131.527 154.72 131.911C153.874 132.55 154.169 132.216 153.569 131.055ZM143.899 119.28C144.844 120.008 144.46 119.851 144.037 120.677C143.772 120.293 143.496 120.057 143.427 119.821C143.427 119.674 143.831 119.28 143.899 119.28ZM13.1299 68.8276C11.1035 66.5258 8.79189 68.8473 8.46728 66.8209C10.0117 66.8701 11.4183 67.0472 12.884 66.7718C13.1299 66.6832 13.425 66.9587 13.6709 67.1357C14.1726 67.4111 14.7136 67.6866 14.3792 68.503C14.1332 69.1522 13.4643 69.1523 13.1299 68.8276ZM86.689 161.322C84.0823 130.661 81.5837 99.4986 78.613 68.8768C77.9933 62.7977 77.3244 56.6694 76.6949 50.5411C76.6555 50.128 76.5277 49.7149 76.449 49.1247C75.4063 49.4001 74.4914 49.6755 73.4979 49.9509C73.2914 49.4493 73.1241 49.0361 72.9569 48.5836C74.039 47.9442 75.0423 47.354 76.4096 48.1312C76.2424 46.1146 76.1145 44.4325 75.9965 42.7406C75.9178 41.9635 75.5341 41.4618 74.8357 41.4127C70.1436 41.1176 71.6585 42.1209 69.7108 42.8292C69.2091 42.1012 68.8747 41.2749 67.8418 41.3241C58.0936 41.7471 60.2577 39.1699 59.0183 49.1443C58.8904 50.1477 59.0183 51.0231 59.7659 51.7019C58.4084 52.5282 58.9396 51.0822 58.31 56.453C59.0576 57.1809 58.4379 58.0072 58.3494 58.7843C58.1428 59.9254 57.8477 61.0665 57.8477 62.2567C57.8083 63.6732 58.0149 65.0405 58.0936 66.4668C58.133 67.5194 58.2608 68.4342 59.1757 69.1227C60.4348 70.0671 58.4182 70.7065 58.133 70.8638C58.133 76.5888 56.5492 74.8674 56.5492 78.9988C56.5492 80.1891 56.4706 81.3793 55.3787 82.058C55.4574 82.422 55.4574 82.7466 55.5852 82.9729C56.6279 84.8025 56.3722 86.7698 56.1263 88.7372C55.9984 89.9274 55.8312 91.1177 54.336 91.1177C53.2736 102.253 52.6539 112.296 51.1292 123.53C50.3619 129.196 51.3358 128.724 51.3358 130.612C49.7521 131.114 49.6242 132.58 49.4668 134.045C49.2602 135.963 49.1324 137.882 48.8864 139.81C47.8831 147.403 46.8896 154.988 45.8862 162.621C45.8075 163.123 45.8075 163.673 45.7584 164.175C46.0928 164.313 46.2207 164.401 46.3387 164.401C50.2537 164.401 54.1688 164.451 58.0739 164.451C59.1953 164.451 59.3626 164.224 59.5298 162.985C60.238 157.348 60.6413 151.328 61.4479 145.475C61.6545 144.108 61.9496 143.833 63.1595 143.833C65.6187 143.784 68.0287 143.784 70.4879 143.833C70.6945 143.833 70.9502 143.97 71.2748 144.059C71.9831 150.827 71.5208 157.634 72.7307 164.362C72.9372 164.411 73.193 164.5 73.4389 164.5L85.5971 164.411C86.9153 164.096 86.807 162.887 86.689 161.322ZM63.7891 129.225C62.7857 129.412 61.8709 129.865 60.9168 130.189C60.8774 130.101 60.8381 129.963 60.7889 129.865C62.2644 127.996 63.4743 126.923 63.5825 124.877C63.8776 120.579 64.1629 116.329 64.458 112.031C64.9203 105.037 65.4122 98.0821 65.9138 91.0882C66.1204 88.5306 66.3761 85.9239 66.6614 83.3663C66.7008 82.7269 66.9565 82.1367 67.1237 81.5367C67.2516 81.5367 67.3697 81.5859 67.4975 81.5859C68.5796 90.5078 69.1009 99.5182 69.2878 108.47C69.455 116.467 70.9109 124.051 71.4716 131.842C70.183 132.019 71.8159 128.123 63.7891 129.225ZM69.8288 49.3116C70.2912 49.9509 70.7043 50.5411 71.2847 51.4166C70.3699 51.4658 69.701 51.4658 68.9534 51.5051C69.2485 52.9708 68.2451 53.2463 67.4582 53.6496C67.3303 53.561 67.2516 53.5118 67.1237 53.4233C67.3303 52.3708 67.5369 51.3182 67.7926 50.1772C68.2943 50.1772 68.7075 50.1772 69.1698 50.1772C69.1698 50.0886 69.2091 49.9509 69.1698 49.9018C68.2353 49.046 66.6811 48.4754 66.1302 47.7574C67.3795 47.8656 68.4419 48.2098 68.9239 47.4327C69.3862 46.6753 70.1633 47.8164 70.6354 46.7048C70.901 46.0556 72.7208 46.5966 73.2127 46.7934C72.7504 46.9803 72.2979 47.1081 71.7568 47.295C71.9929 48.8492 70.5764 48.623 69.8288 49.3116ZM117.95 65.9553C117.33 70.5294 117.242 75.0051 117.704 79.4415C117.832 80.4448 118.206 81.2219 119.327 81.1334C122.741 80.9071 126.193 80.9465 129.489 79.6677C131.613 78.8414 131.82 78.6152 131.741 76.2839C131.495 71.3458 131.407 66.4078 130.954 61.4698C130.581 56.9449 129.577 52.4593 127 48.623C121.836 40.9405 113.76 39.9863 105.398 42.6816C100.401 44.285 97.657 48.623 95.8273 53.2856C90.4761 66.9193 91.6861 105.283 91.7451 120.49C91.7451 121.543 91.2828 122.959 92.532 123.549C93.9879 124.238 94.4502 122.585 95.1584 121.995C97.6963 121.808 97.0274 124.376 98.2767 125.33C98.6898 125.694 98.6898 126.835 98.6505 127.573C98.6111 128.123 98.1488 128.674 97.775 129.402C96.5651 128.301 95.5716 127.435 94.4404 126.481C92.6894 127.071 92.3156 128.586 92.5714 130.553C93.1911 135.668 93.6141 140.882 94.3617 146.007C95.4929 153.492 100.215 162.483 108.35 163.978C112.058 164.618 115.806 164.667 119.544 164.028C123.96 163.25 128.239 162.06 131.663 158.765C132.499 158.037 133.04 157.348 133.04 156.158C133.079 151.545 133.207 146.921 133.207 142.308C133.207 139.78 132.194 140.478 132.42 137.144C132.548 134.901 132.627 132.619 132.341 130.376C131.702 125.045 132.086 124.868 132.882 120.313C133.305 117.923 131.83 117.47 130.718 116.29C127.826 113.221 132.902 114.598 132.843 109.847C132.843 107.84 132.882 105.774 132.843 103.768C132.804 101.574 132.341 99.3707 130.099 99.233C124.541 99.0461 123.085 102.105 113.779 101.446C112.156 101.495 111.822 101.859 111.822 103.551C111.822 107.161 111.448 109.985 111.527 113.644C111.556 116.034 113.012 115.798 114.694 115.109C115.157 114.923 115.442 114.332 115.737 113.88C117.153 111.47 121 108.932 122.544 109.621C122.75 109.709 123.537 111.067 123.036 111.647C121.924 112.945 120.095 111.391 121.521 112.955C119.691 112.867 118.944 113.87 118.609 115.375C118.403 116.241 118.068 117.116 118.068 117.982C117.989 120.726 117.822 123.51 118.147 126.254C118.855 132.658 118.442 139.013 118.186 145.407C118.108 147.876 117.439 148.515 115.107 148.879C113.022 149.204 110.986 148.24 110.317 146.095C109.481 143.538 108.9 140.793 108.605 138.098C108.025 132.294 107.69 126.441 107.228 120.638C106.815 115.562 105.9 110.535 106.274 105.371C106.402 103.315 105.113 101.25 105.064 99.1445C105.025 96.8132 105.979 94.354 106.018 92.0227C106.225 85.3042 106.599 78.5857 106.854 71.8574C106.982 67.8341 108.143 64.0371 109.225 60.2402C110.268 56.6203 112.412 57.6236 114.507 57.2695C118.422 56.6006 117.124 53.561 116.504 50.8264C118.708 52.5675 120.586 53.7971 122.121 55.3513C123.498 56.7678 123.075 58.3712 121.373 59.0598C120.793 57.9187 120.419 56.5022 118.835 56.0891C118.668 56.4137 118.334 56.7285 118.422 56.9154C118.885 58.1056 118.127 58.9319 117.635 59.8369C116.514 61.8042 116.593 62.0304 118.845 62.6305C120.459 63.0338 121.865 67.6964 118.678 66.88C118.373 66.7718 118.206 66.2701 117.95 65.9553ZM96.6438 139.967C95.5617 139.416 95.6404 138.55 95.8962 137.822C96.1421 136.957 96.5159 135.993 97.1061 135.304C97.3619 134.99 99.3981 134.409 99.5653 137.085C99.6046 137.813 99.103 138.177 98.2767 138.049C97.8832 137.99 96.87 139.593 96.6438 139.967ZM103.048 134.124C101.965 131.979 100.883 130.051 100.756 127.769C102.339 129.501 104.72 130.917 103.048 134.124ZM100.008 117.382C99.0243 114.136 99.2702 115.09 99.8407 113.998C101.07 115.011 100.756 114.027 100.756 117.333C100.51 117.342 100.264 117.342 100.008 117.382ZM94.8535 116.014C97.1356 114.165 97.3717 116.654 96.9389 116.88C96.0142 117.431 95.3453 116.978 94.8535 116.014ZM98.5914 132.56C96.1913 129.265 97.175 133.73 98.5914 132.56V132.56ZM175.633 130.15L174.354 115.503H164.803C162.707 115.503 163.524 115.001 162.353 115.483L162.491 115.129C159.019 113.988 162.304 113.654 156.805 114.008C157.277 116.487 155.654 116.949 154.376 117.647C154.169 117.49 154.041 117.411 153.835 117.264C154.169 115.483 154.513 113.703 154.917 111.765C155.723 111.765 156.402 111.765 157.15 111.765C157.15 111.608 157.218 111.381 157.15 111.303C155.586 109.817 153.116 108.902 152.212 107.663C154.287 107.86 155.969 108.43 156.736 107.122C156.864 106.886 157.159 106.738 157.445 106.67C157.838 104.515 159.176 102.676 160.996 101.594C161.202 101.102 161.389 100.659 161.606 100.226C162.215 100.463 162.147 100.492 162.225 101.004C163.032 100.709 163.898 100.541 164.793 100.541H173.134L170.223 68.867C169.603 62.7879 168.934 56.6596 168.304 50.5313C168.265 50.1182 168.137 49.705 168.058 49.1148C167.016 49.3903 166.101 49.6657 165.107 49.9411C164.901 49.4394 164.734 49.0263 164.566 48.5738C165.648 47.9344 166.652 47.3442 168.019 48.1213C167.852 46.1048 167.724 44.4227 167.606 42.7308C167.527 41.9537 167.144 41.452 166.435 41.4028C161.743 41.1077 163.258 42.1111 161.31 42.8193C160.809 42.0914 160.474 41.2651 159.441 41.3143C149.693 41.7373 151.857 39.16 150.618 49.1345C150.49 50.1378 150.618 51.0133 151.366 51.692C150.008 52.5183 150.539 51.0723 149.91 56.4432C150.657 57.1711 150.038 57.9974 149.949 58.7745C149.742 59.9156 149.447 61.0566 149.447 62.2469C149.408 63.6633 149.615 65.0307 149.693 66.457C149.733 67.5095 149.861 68.4243 150.775 69.1129C152.034 70.0572 150.018 70.6966 149.733 70.854C149.733 76.579 148.149 74.8576 148.149 78.989C148.149 80.1792 148.07 81.3695 146.978 82.0482C147.057 82.4122 147.057 82.7368 147.185 82.963C148.228 84.7927 147.972 86.76 147.726 88.7273C147.598 89.9176 147.431 91.1078 145.936 91.1078C144.873 102.243 144.254 112.286 142.729 123.52C141.962 129.186 142.935 128.714 142.935 130.602C141.352 131.104 141.234 132.57 141.066 134.035C140.86 135.954 140.732 137.872 140.486 139.8C139.483 147.394 138.489 154.978 137.486 162.611C137.407 163.113 137.407 163.664 137.358 164.165C137.692 164.303 137.82 164.392 137.938 164.392C141.853 164.392 145.768 164.441 149.674 164.441C150.795 164.441 150.962 164.214 151.129 162.975C151.838 157.339 152.241 151.318 153.048 145.466C153.254 144.098 153.549 143.823 154.749 143.823C157.209 143.774 159.619 143.774 162.078 143.823C162.284 143.823 162.54 143.961 162.865 144.049C163.573 150.817 163.111 157.624 164.321 164.352C165.648 164.647 169.121 164.49 170.675 164.49C170.527 162.464 170.055 162.208 168.167 162.336C166.967 162.405 166.396 161.5 166.465 159.493C166.524 157.555 167.281 156.788 168.806 157.27C170.508 157.683 170.508 157.683 170.823 155.607C171.265 152.489 171.265 149.371 170.823 146.243C170.695 145.269 170.321 143.606 171.393 143.469C172.534 143.331 172.21 145.062 172.278 146.036C172.465 147.974 172.534 149.922 172.652 151.86C172.711 152.479 172.652 153.384 172.967 153.729C175.515 156.384 173.567 159.188 174.925 159.621C175.426 159.758 175.741 159.483 176.056 159.07C176.626 158.234 176.557 157.201 176.557 156.296C176.302 149.361 176.056 142.426 175.672 135.57C175.633 133.75 175.603 131.94 175.633 130.15ZM163.543 43.3702C164.065 43.5669 163.829 43.5767 164.124 44.9736C163.661 44.885 163.376 44.8358 162.914 44.7473C163.16 44.1866 163.327 43.7735 163.543 43.3702ZM161.458 49.3116C161.92 49.9509 162.333 50.5411 162.914 51.4166C161.999 51.4658 161.33 51.4658 160.583 51.5051C160.878 52.9708 159.874 53.2463 159.087 53.6496C158.959 53.561 158.881 53.5118 158.753 53.4233C158.959 52.3708 159.166 51.3182 159.422 50.1772C159.924 50.1772 160.337 50.1772 160.799 50.1772C160.799 50.0886 160.838 49.9509 160.799 49.9018C159.864 49.046 158.31 48.4853 157.759 47.7574C159.009 47.8656 160.071 48.2098 160.553 47.4327C161.015 46.6753 161.802 47.8164 162.255 46.7048C162.52 46.0556 164.34 46.5966 164.832 46.7934C164.37 46.9803 163.917 47.1081 163.376 47.295C163.622 48.8492 162.206 48.623 161.458 49.3116ZM440.575 48.4754C441.018 49.1247 441.421 49.7247 441.982 50.6002C441.097 50.6494 440.457 50.6493 439.729 50.6887C440.015 52.1642 439.041 52.4396 438.283 52.8528C438.165 52.7642 438.087 52.7151 437.959 52.6265C438.156 51.5642 438.362 50.5018 438.598 49.3509C439.08 49.3509 439.483 49.3509 439.926 49.3509C439.926 49.2624 439.966 49.1247 439.926 49.0755C439.001 48.2 437.526 47.6491 436.985 46.9114C438.215 47.0294 439.228 47.3639 439.68 46.5868C440.123 45.8293 440.89 46.9606 441.333 45.849C441.598 45.1998 443.34 45.731 443.822 45.9375C443.379 46.1244 442.936 46.2622 442.415 46.4392C442.661 48.0131 441.293 47.7869 440.575 48.4754ZM658.823 161.372C656.295 130.455 653.885 99.0756 651.023 68.1981C650.422 62.0698 649.773 55.8923 649.173 49.7247C649.134 49.3116 649.016 48.8984 648.927 48.2984C647.924 48.5738 647.039 48.8492 646.075 49.1247C645.878 48.6131 645.711 48.2 645.553 47.7377C646.596 47.0885 647.56 46.4884 648.888 47.2753C648.73 45.249 648.603 43.5374 648.485 41.8356C648.406 41.0487 648.042 40.547 647.363 40.4978C642.828 40.2027 644.304 41.2061 642.415 41.9242C641.933 41.1864 641.609 40.3601 640.605 40.3995C631.182 40.8225 633.277 38.2256 632.077 48.2787C631.959 49.2919 632.077 50.1673 632.805 50.8559C631.477 51.7019 632.008 50.2657 631.398 55.6464C632.126 56.3842 631.516 57.2105 631.438 57.9974C631.241 59.1483 630.956 60.2992 630.956 61.4993C630.916 62.9256 631.113 64.3126 631.201 65.7389C631.241 66.8013 631.359 67.7161 632.244 68.4145C633.464 69.3687 631.516 70.008 631.241 70.1654C631.241 75.9101 629.716 74.2182 629.716 78.3693C629.716 79.5694 629.637 80.7694 628.595 81.458C628.673 81.822 628.673 82.1466 628.791 82.3827C629.795 84.2221 629.559 86.2092 629.313 88.1863C629.195 89.3864 629.028 90.5865 627.582 90.5865C626.549 101.781 625.958 111.962 624.483 123.254C623.745 128.95 624.68 128.458 624.68 130.396C623.155 130.907 623.027 132.373 622.87 133.848C622.673 135.786 622.545 137.714 622.309 139.652C621.345 147.305 620.381 154.948 619.417 162.65C619.338 163.152 619.338 163.713 619.299 164.214C619.624 164.352 619.742 164.441 619.86 164.441C623.637 164.441 627.424 164.49 631.201 164.49C632.284 164.49 632.451 164.264 632.608 163.014C633.297 157.319 633.68 151.269 634.457 145.367C634.654 143.98 634.939 143.705 636.11 143.705C638.481 143.656 640.812 143.656 643.192 143.705C643.389 143.705 643.635 143.843 643.96 143.931C644.648 150.748 644.206 157.614 645.366 164.392C645.563 164.441 645.809 164.529 646.055 164.529L657.8 164.441C659.049 164.165 658.931 162.906 658.823 161.372ZM644.54 42.4849C645.052 42.6816 644.825 42.7111 645.101 44.0981C644.658 44.0096 644.373 43.9604 643.93 43.8718C644.176 43.3111 644.343 42.898 644.54 42.4849ZM634.005 53.8168C634.566 54.2496 634.339 54.1611 634.084 54.6431C633.926 54.4168 633.759 54.2693 633.72 54.1316C633.72 54.0529 633.966 53.8168 634.005 53.8168ZM641.648 128.605C639.995 128.743 638.313 128.792 636.7 129.019C635.736 129.206 634.851 129.668 633.926 129.983C633.887 129.894 633.848 129.756 633.808 129.658C635.235 127.769 636.405 126.697 636.503 124.631C636.789 120.303 637.064 116.014 637.349 111.686C637.792 104.633 638.274 97.6296 638.756 90.5767C638.953 87.9994 639.199 85.373 639.484 82.786C639.523 82.1367 639.769 81.5465 639.927 80.9465C640.045 80.9465 640.173 80.9957 640.291 80.9957C641.333 89.9963 641.845 99.0658 642.022 108.096C642.101 112.099 642.543 116.064 642.828 120.028C642.986 122.743 643.192 125.468 643.389 128.369C642.73 128.468 642.209 128.556 641.648 128.605ZM639.759 60.8205C639.877 60.7714 640.005 60.6828 640.084 60.6336C640.202 60.8599 640.33 61.096 640.448 61.3222C639.937 61.7157 640.114 61.5091 639.759 60.8205ZM642.533 48.4754C642.976 49.1247 643.379 49.7247 643.94 50.6002C643.055 50.6494 642.415 50.6493 641.687 50.6887C641.973 52.1642 640.999 52.4396 640.241 52.8528C640.123 52.7642 640.045 52.7151 639.917 52.6265C640.114 51.5642 640.32 50.5018 640.556 49.3509C641.038 49.3509 641.441 49.3509 641.884 49.3509C641.884 49.2624 641.923 49.1247 641.884 49.0755C640.959 48.2 639.484 47.6491 638.943 46.9114C640.173 47.0294 641.186 47.3639 641.638 46.5868C642.081 45.8293 642.848 46.9606 643.291 45.849C643.556 45.1998 645.297 45.731 645.779 45.9375C645.337 46.1244 644.894 46.2622 644.373 46.4392C644.619 48.0131 643.251 47.7869 642.533 48.4754ZM644.983 51.5642C645.229 50.9641 645.347 50.6395 645.465 50.3149C646.114 51.1018 646.114 51.1018 644.983 51.5642ZM579.785 74.9658C580.188 76.7659 580.188 78.3299 578.821 79.6185C578.221 80.1694 577.739 80.9563 577.208 81.6449C575.781 83.5631 577.483 83.7205 577.129 85.8845C576.883 87.1731 576.362 88.4224 576.244 89.711C575.801 94.0392 574.876 98.2788 575.073 102.656C575.112 104.22 575.319 105.833 575.319 107.407C575.319 116.3 575.722 125.153 576.401 133.996C576.726 138.236 576.922 142.475 578.132 146.626C579.136 150.217 579.942 153.906 581.998 157.043C583.847 159.896 586.1 162.208 589.159 163.359C593.222 164.883 597.324 164.883 601.465 163.772C604.023 163.093 603.304 160.398 600.944 160.457C600.885 160.457 599.803 160.89 599.252 160.457C598.17 159.581 597.117 158.706 596.114 157.83C596.96 156.079 597.196 155.666 598.081 155.479C599.655 155.155 601.258 154.879 602.832 154.692C603.757 154.555 604.445 154.968 604.682 156.119C604.042 156.67 603.393 157.181 602.586 157.87C603.914 158.381 605.036 158.794 605.242 160.309C605.321 160.703 607.219 160.89 607.652 159.109C607.977 157.771 607.849 156.62 607.013 155.745C607.495 154.358 607.977 153.069 608.498 151.594C609.541 152.558 610.348 153.296 611.233 154.171C613.653 150.354 614.154 143.193 614.489 138.639C614.735 135.137 614.971 131.635 615.177 128.133C615.256 126.471 615.02 126.245 613.564 125.92C610.584 125.212 606.206 124.631 603.186 124.218C601.622 123.992 601.416 124.218 601.258 125.832C601.14 126.845 601.062 127.858 601.101 128.871C601.386 134.675 600.216 140.301 599.852 146.016C599.812 146.567 599.33 147.443 598.966 147.492C597.56 147.767 596.832 148.741 596.193 150.03C595.789 149.754 595.425 149.666 595.229 149.381C594.019 147.718 592.74 146.105 592.248 143.99C591.746 141.974 590.379 141.974 590.399 138.787C590.438 135.649 590.399 132.521 590.438 129.383C590.497 126.314 591.186 121.513 591.038 118.739C590.477 105.745 590.713 92.7014 590.753 79.7071C590.792 75.1035 591.038 70.4901 591.392 65.9258C591.55 63.6634 592.081 61.4107 592.602 59.1975C592.848 57.9482 593.645 57.1219 594.973 56.9449C596.94 56.6202 598.229 57.2695 598.839 59.3844C600.412 65.011 600.334 71.2967 600.727 77.3561C600.885 79.894 601.573 80.5333 603.905 80.2579L613.761 78.6447C614.764 78.4578 615.246 77.8578 615.246 76.8052C615.158 72.359 613.948 64.647 613.358 59.9352C611.98 49.0263 606.639 39.8683 594.491 40.3995C587.979 40.6749 583.031 43.9899 580.129 50.5805C577.473 56.6104 575.703 65.2569 576.706 71.9656C577.08 74.4149 576.549 75.6445 577.031 78.6447C579.254 78.0447 577.444 75.133 579.785 74.9658ZM591.805 161.972C591.805 157.398 595.199 159.385 591.805 161.972V161.972ZM604.357 151.879C603.796 150.817 603.875 150.217 604.554 149.528C605.046 150.354 604.721 150.905 604.357 151.879ZM599.655 152.381C600.019 153.443 599.852 153.856 598.77 153.807C599.084 153.306 599.291 152.932 599.655 152.381ZM610.23 150.217C609.807 151.555 608.862 151.023 609.02 150.541C609.266 149.853 609.747 150.168 610.23 150.217ZM665.778 93.5375C664.273 95.2589 664.302 97.2558 665.974 98.8395C667.529 100.305 669.496 101.269 667.863 103.355C667.056 104.387 665.925 104.801 666.378 106.63C667.056 109.375 664.223 109.276 664.646 113.998C664.843 116.487 665.128 118.975 665.168 121.464C665.364 132.491 665.158 143.528 665.207 154.545C665.207 156.984 665.286 159.434 665.453 161.824C665.571 163.9 666.181 164.451 668.07 164.451C672.939 164.5 677.808 164.539 682.628 164.539C685.884 164.539 689.14 164.451 692.406 164.451C695.622 164.451 698.799 164.539 702.016 164.539C703.511 164.539 704.229 163.85 704.318 162.503C702.842 162.611 702.321 161.647 702.616 159.64C702.872 157.584 702.872 157.585 701.632 157.171C696.753 155.607 694.53 158.598 694.402 156.316C694.324 154.938 695.357 155.342 695.937 155.283C697.098 155.076 698.258 155.027 699.409 154.909C699.783 154.84 700.314 154.929 700.531 154.555C701.76 152.233 703.069 153.001 703.501 152.932C703.374 152.096 703.196 150.886 702.793 150.276C701.81 150.109 691.333 150.876 689.71 151.023C686.976 151.269 684.29 150.974 681.654 150.227C681.32 150.138 680.995 150.138 680.916 149.213C684.861 149.076 683.464 147.02 683.464 144.285C683.464 141.6 683.671 147.059 683.671 138.088C683.671 134.448 683.71 130.858 683.671 127.209C683.671 125.507 683.513 123.795 683.513 122.143C683.553 119.241 683.759 116.339 683.798 113.477C683.838 111.814 683.68 110.162 683.68 108.548C683.602 104.22 683.602 99.8822 683.484 95.5049C683.405 92.4161 683.12 89.3766 683.041 86.2878L682.195 56.935C682.077 53.7873 680.513 55.1644 678.251 53.7086C678.005 53.5217 677.729 52.7839 677.847 52.6069C678.742 51.2395 679.962 52.4691 680.739 52.7938C682.795 53.6397 682.441 50.5313 682.589 49.5673C683.061 46.4491 680.277 47.0786 679.254 43.4882C678.811 41.9242 677.847 40.9503 676.195 40.9995C673.194 41.0881 668.876 40.6454 665.738 40.4487C664.046 40.3601 663.446 40.9602 663.525 42.8488C663.564 43.8128 663.564 44.7866 663.643 45.7506C664.332 53.4922 664.607 61.2337 664.371 68.9752C664.332 70.313 664.253 71.6508 664.292 72.9394C664.361 75.3691 664.578 90.3701 664.892 91.6489C665.06 92.2489 665.374 92.7604 665.778 93.5375ZM678.093 47.7869C676.559 49.0656 675.309 50.5018 674.749 50.1772C673.637 49.6952 672.939 48.259 671.965 47.3049C672.801 46.5081 673.775 44.9145 674.473 45.0719C675.585 45.0719 676.559 46.5081 678.093 47.7869ZM679.411 58.381C679.057 58.745 679.765 60.1811 678.447 59.404C678.073 59.1778 677.887 60.0336 677.641 60.309C677.237 59.7582 676.431 59.0204 676.519 58.745C676.765 58.0072 677.405 57.4564 677.965 57.0924C678.133 57.0039 678.772 57.7416 679.411 58.381ZM466.869 74.9658C467.272 76.7659 467.272 78.3299 465.905 79.6185C465.305 80.1694 464.823 80.9563 464.292 81.6449C462.865 83.5631 464.567 83.7205 464.213 85.8845C463.967 87.1731 463.446 88.4224 463.328 89.711C462.885 94.0392 461.96 98.2788 462.157 102.656C462.197 104.22 462.403 105.833 462.403 107.407C462.403 116.3 462.806 125.153 463.485 133.996C463.81 138.236 464.007 142.475 465.216 146.626C466.22 150.217 467.026 153.906 469.082 157.043C470.932 159.896 473.184 162.208 476.243 163.359C480.306 164.883 484.408 164.883 488.549 163.772C491.107 163.093 490.389 160.398 488.028 160.457C487.969 160.457 486.887 160.89 486.336 160.457C485.254 159.581 484.201 158.706 483.198 157.83C484.044 156.079 484.28 155.666 485.165 155.479C486.739 155.155 488.343 154.879 489.916 154.692C490.841 154.555 491.53 154.968 491.766 156.119C491.126 156.67 490.477 157.181 489.671 157.87C490.999 158.381 492.12 158.794 492.326 160.309C492.405 160.703 494.304 160.89 494.736 159.109C495.061 157.771 494.933 156.62 494.097 155.745C494.579 154.358 495.061 153.069 495.582 151.594C496.625 152.558 497.432 153.296 498.317 154.171C500.737 150.354 501.238 143.193 501.573 138.639C501.819 135.137 502.055 131.635 502.262 128.133C502.34 126.471 502.104 126.245 500.648 125.92C497.668 125.212 493.29 124.631 490.271 124.218C488.707 123.992 488.5 124.218 488.343 125.832C488.225 126.845 488.146 127.858 488.185 128.871C488.47 134.675 487.3 140.301 486.936 146.016C486.897 146.567 486.415 147.443 486.051 147.492C484.644 147.767 483.916 148.741 483.277 150.03C482.873 149.754 482.509 149.666 482.313 149.381C481.103 147.718 479.814 146.105 479.332 143.99C478.83 141.974 477.463 141.974 477.483 138.787C477.522 135.649 477.483 132.521 477.522 129.383C477.581 126.314 478.27 121.513 478.122 118.739C477.562 105.745 477.798 92.7014 477.837 79.7071C477.876 75.1035 478.122 70.4901 478.476 65.9258C478.634 63.6634 479.165 61.4107 479.686 59.1975C479.932 57.9482 480.729 57.1219 482.057 56.9449C484.024 56.6202 485.313 57.2695 485.923 59.3844C487.497 65.011 487.418 71.2967 487.811 77.3561C487.969 79.894 488.657 80.5333 490.989 80.2579L500.845 78.6447C501.848 78.4578 502.33 77.8578 502.33 76.8052C502.242 72.359 501.032 64.647 500.442 59.9352C499.065 49.0263 493.723 39.8683 481.575 40.3995C475.063 40.6749 470.115 43.9899 467.213 50.5805C464.557 56.6104 462.787 65.2569 463.79 71.9656C464.164 74.4149 463.633 75.6445 464.115 78.6447C466.348 78.0447 464.538 75.133 466.869 74.9658ZM478.899 161.972C478.899 161.067 478.644 159.522 479.627 159.345C480.168 159.247 480.867 160.132 480.316 160.87C480.07 161.234 479.627 161.411 478.899 161.972ZM491.451 151.879C490.89 150.817 490.969 150.217 491.648 149.528C492.13 150.354 491.815 150.905 491.451 151.879ZM486.739 152.381C487.103 153.443 486.936 153.856 485.854 153.807C486.178 153.306 486.385 152.932 486.739 152.381ZM497.324 150.217C496.901 151.555 495.956 151.023 496.114 150.541C496.359 149.853 496.842 150.168 497.324 150.217ZM468.236 96.6754C468.581 97.0689 468.738 96.8427 468.276 97.5509C467.764 97.1574 468.059 97.0099 468.236 96.6754ZM474.276 122.428C473.991 122.566 473.833 122.654 473.676 122.654C473.597 122.654 473.391 122.33 473.43 122.29C473.991 121.651 474.01 122.133 474.276 122.428ZM534.447 162.198C534.329 161.824 534.369 161.46 534.644 161.185C534.644 159.935 534.565 158.696 534.762 157.457C534.477 156.493 534.516 155.479 534.516 154.506C534.516 150.04 534.556 145.613 534.556 141.147C534.516 139.583 534.674 138.059 534.841 136.495C534.575 135.993 534.615 135.531 534.792 135.068L534.713 133.691C534.487 129.638 534.556 125.625 534.87 121.651C534.91 119.487 534.506 117.323 534.506 115.208C533.985 113.506 534.221 111.755 534.26 110.004C534.26 109.503 534.26 108.942 534.26 108.44C534.103 104.338 534.26 100.197 534.064 96.0951C533.818 90.5176 533.946 84.9402 533.778 79.3726C533.66 76.6085 533.778 73.8444 533.778 71.0802C533.778 69.8408 533.582 68.5916 533.66 67.3029C533.857 63.988 533.818 60.6631 533.857 57.3482C533.896 54.948 534.054 54.7218 535.952 54.7218C538.126 54.6726 540.3 54.6332 542.425 54.7218C543.507 54.7709 544.481 54.2103 545.563 54.1709C546.251 54.1217 546.527 53.384 546.527 52.6462C546.527 49.0951 546.684 45.5047 546.33 42.0029C546.133 40.065 546.005 40.065 544.363 39.6519H542.553C542.11 39.5633 541.667 39.465 541.225 39.4256C538.933 39.888 536.602 39.8388 534.31 39.6519C533.178 39.5633 532.096 39.6519 531.014 39.6519C527.03 39.7896 523.047 39.9273 519.112 39.5142C517.292 39.3469 516.987 40.124 516.22 39.2387C513.771 39.2387 514.125 39.465 511.233 39.1895C510.711 39.1895 510.19 39.1895 509.669 39.1895C509.383 39.2781 509.147 39.1896 508.862 39.0027L507.091 39.0518C505.537 39.4551 507.042 48.7902 507.131 51.2199C507.17 52.42 507.416 53.4823 508.173 54.3086C509.344 54.3086 510.465 54.3086 511.636 54.3578C512.039 54.2693 512.403 54.3086 512.718 54.584C513.593 55.0956 518.551 53.1085 518.709 55.971C518.905 59.109 518.905 62.237 518.866 65.4143C518.827 65.7782 518.787 66.2012 518.748 66.6144C518.945 67.1259 518.994 67.6767 519.033 68.2768C519.318 71.277 519.436 71.454 521.768 71.9656C522.073 72.9 520.322 72.1525 520.322 73.2542C520.322 76.3921 523.833 74.4051 525.073 75.6543C523.588 77.7299 521.974 78.2807 519.928 76.5298C520.007 78.4676 520.086 80.0809 520.125 81.6941C520.164 82.7565 520.725 83.0811 521.492 83.2581C522.26 83.3958 523.42 82.7466 523.627 84.0451C523.745 85.0583 522.417 84.8714 521.935 85.5698C521.296 86.4452 520.086 86.0321 519.318 87.183C520.686 87.4584 520.971 89.2979 522.26 89.6225C523.017 89.8389 522.948 91.9735 523.066 93.0358C521.709 93.6752 521.158 90.9603 519.928 93.3605C519.486 94.1867 519.732 94.5605 520.332 95.0229C521.178 95.7114 521.984 96.3115 523.352 96.5869C520.036 97.6985 519.505 98.0526 519.328 102.066C519.368 102.755 519.368 103.453 519.368 104.092C519.732 105.843 520.135 107.545 519.732 109.345C519.594 110.594 520.371 112.955 522.506 112.985C524.67 113.014 524.03 114.913 521.06 114.686C519.682 114.578 519.24 114.716 519.328 117.224C519.446 118.887 519.574 120.5 519.328 122.153C519.368 124.13 519.446 126.068 519.446 128.055C519.446 129.756 519.407 131.468 519.643 133.121C519.889 134.871 519.604 136.672 519.682 138.423C519.879 142.849 519.84 147.315 519.879 151.791C519.879 151.978 519.879 152.115 519.879 152.302C520.282 154.279 520.243 156.266 519.879 158.244C519.918 158.706 519.958 159.119 519.997 159.532C520.194 159.995 520.194 160.408 520.036 160.821C520.076 161.332 520.115 161.834 520.155 162.296C520.332 164.696 520.587 164.49 523.725 164.559C523.597 164.057 523.548 163.428 523.568 162.66C523.647 160.309 524.561 159.394 526.391 159.975C528.457 160.476 528.457 160.477 528.831 157.958C529.362 154.181 529.362 150.414 528.831 146.636C528.673 145.466 528.221 143.449 529.519 143.282C530.896 143.115 530.513 145.21 530.591 146.38C530.818 148.731 530.896 151.073 531.054 153.424C531.132 154.181 531.054 155.273 531.437 155.686C534.605 159.07 531.949 163.211 534.251 162.847C534.339 162.621 534.398 162.424 534.447 162.198ZM566.672 164.037C566.791 163.349 566.869 162.936 566.869 162.562C566.948 156.522 567.027 150.492 566.987 144.452C566.948 136.986 566.663 129.52 566.663 122.054C566.623 107.22 566.663 92.3768 566.702 77.543C566.741 72.2016 566.948 66.8505 566.987 61.5583C567.027 55.7546 566.909 49.9903 566.909 44.1866C566.909 40.5175 565.522 40.5962 562.561 40.5962C561.154 40.5962 559.708 40.6454 558.301 40.6454C548.701 40.5274 550.707 38.6289 551.022 51.7019C551.101 55.7153 551.219 59.7188 551.18 63.7322C551.101 68.021 550.776 72.3492 550.658 76.638C550.58 80.4153 550.58 84.1926 550.737 87.9306C550.894 91.2947 551.544 91.8062 554.475 91.5702C554.514 91.5702 554.593 91.7571 554.593 91.7079C553.786 93.2326 551.416 92.8588 551.662 95.6721C551.819 97.3345 550.294 99.2232 552.183 100.374C552.065 100.925 551.74 101.613 551.898 101.761C553.354 103.178 551.111 105.617 551.052 107.84C550.973 113.555 550.973 119.31 551.012 125.025C551.012 125.438 551.17 125.851 551.337 126.451C552.026 125.94 552.547 125.527 553.393 124.887C553.147 126.225 553.196 127.15 552.793 127.789C552.508 128.34 551.75 128.478 551.14 128.851C551.101 129.501 551.022 130.091 551.022 130.74C551.062 140.046 551.101 149.4 551.18 158.755C551.189 160.536 551.317 160.486 551.78 161.155C552.301 160.831 552.783 160.506 553.265 160.191C554.583 161.785 551.435 163.713 554.15 164.382L563.928 164.333C564.813 164.313 565.659 164.136 566.672 164.037ZM557.977 163.487C558.744 160.949 557.091 161.372 556.049 160.673C556.167 159.572 556.334 158.371 556.452 157.309C558.065 156.758 558.065 158.371 558.783 159.149C559.265 157.348 559.787 155.735 560.151 154.033C560.544 152.263 562.089 152.607 562.039 154.171C562.01 155.145 561.754 157.171 562.285 157.948C563.053 159.099 562.649 159.926 562.039 160.899C561.154 162.336 559.787 162.749 557.977 163.487ZM555.203 153.119C554.799 151.417 554.603 150.404 554.318 149.105C555.685 149.43 556.491 150.256 556.688 151.505C556.846 152.607 557.288 153.994 555.921 154.82C555.557 155.007 555.478 155.922 555.232 156.66C554.75 156.571 554.308 156.522 554.268 156.473C553.501 154.909 552.901 153.66 552.262 152.371C553.235 152.617 553.993 152.794 555.203 153.119Z" fill="black"/>
<path d="M402.488 198.59H396.828V215.34H392.858V198.59H387.278V195.53H402.488V198.59Z" fill="black"/>
<path d="M413.508 211.06H407.088L405.758 215.33H401.608L408.288 195.52H412.358L419.008 215.33H414.858L413.508 211.06ZM408.068 207.95H412.548L410.358 200.97H410.278L408.068 207.95Z" fill="black"/>
<path d="M426.348 207.06H424.888V215.33H420.918V195.52H424.888V203.62H426.008L431.438 195.52H436.348L429.488 204.73L436.878 215.33H431.818L426.348 207.06Z" fill="black"/>
<path d="M452.488 198.59H446.828V215.34H442.858V198.59H437.278V195.53H452.488V198.59Z" fill="black"/>
<path d="M466.568 195.52H470.538V215.33H466.568V202.09L466.488 202.08L458.488 215.33H454.528V195.52H458.488V208.75L458.568 208.76L466.568 195.52Z" fill="black"/>
<path d="M489.458 195.52V215.33H485.468V207.7C484.868 207.84 484.198 207.96 483.458 208.03C482.718 208.11 482.048 208.15 481.458 208.15C479.028 208.15 477.148 207.62 475.818 206.57C474.488 205.52 473.828 203.89 473.828 201.69V195.52H477.798V201.69C477.798 202.98 478.088 203.87 478.658 204.36C479.238 204.85 480.168 205.09 481.458 205.09C482.018 205.09 482.678 205.05 483.438 204.97C484.198 204.89 484.878 204.78 485.468 204.64V195.52H489.458Z" fill="black"/>
<path d="M504.398 206.63H497.048V212.29H505.788V215.34H493.078V195.53H505.758V198.59H497.048V203.57H504.398V206.63Z" fill="black"/>
<path d="M523.438 208.78L523.468 208.86C523.508 210.97 522.858 212.63 521.538 213.83C520.208 215.03 518.388 215.63 516.058 215.63C513.678 215.63 511.768 214.87 510.298 213.34C508.838 211.81 508.108 209.84 508.108 207.41V203.48C508.108 201.07 508.818 199.09 510.248 197.55C511.668 196.01 513.538 195.24 515.858 195.24C518.268 195.24 520.158 195.83 521.518 197.01C522.878 198.19 523.538 199.85 523.508 201.99L523.478 202.07H519.618C519.618 200.8 519.308 199.85 518.698 199.23C518.088 198.61 517.138 198.3 515.858 198.3C514.668 198.3 513.738 198.78 513.078 199.74C512.408 200.7 512.078 201.93 512.078 203.45V207.41C512.078 208.93 512.428 210.18 513.128 211.14C513.828 212.1 514.808 212.58 516.058 212.58C517.248 212.58 518.138 212.27 518.718 211.65C519.308 211.03 519.598 210.07 519.598 208.79H523.438V208.78Z" fill="black"/>
<path d="M531.738 207.06H530.278V215.33H526.308V195.52H530.278V203.62H531.398L536.828 195.52H541.738L534.878 204.73L542.268 215.33H537.208L531.738 207.06Z" fill="black"/>
<path d="M554.388 211.06H547.968L546.638 215.33H542.488L549.168 195.52H553.238L559.888 215.33H555.738L554.388 211.06ZM548.948 207.95H553.428L551.238 200.97H551.158L548.948 207.95Z" fill="black"/>
<path d="M563.838 215.34H559.538L563.828 206.5C562.798 205.96 562.018 205.27 561.488 204.42C560.958 203.57 560.698 202.57 560.698 201.42C560.698 199.55 561.348 198.1 562.638 197.07C563.928 196.04 565.708 195.53 567.978 195.53H574.848V215.34H570.878V207.71H567.518L563.838 215.34ZM570.868 198.59H567.968C566.878 198.59 566.058 198.85 565.488 199.38C564.918 199.91 564.648 200.65 564.648 201.6C564.648 202.55 564.938 203.33 565.508 203.92C566.078 204.51 566.898 204.81 567.968 204.81H570.868V198.59Z" fill="black"/>
<path d="M601.138 207.21C601.138 209.65 600.368 211.66 598.838 213.25C597.308 214.84 595.308 215.63 592.848 215.63C590.398 215.63 588.408 214.84 586.888 213.25C585.368 211.66 584.598 209.65 584.598 207.22V203.65C584.598 201.23 585.358 199.22 586.878 197.63C588.398 196.04 590.378 195.24 592.818 195.24C595.278 195.24 597.278 196.04 598.818 197.63C600.358 199.22 601.128 201.23 601.128 203.65V207.21H601.138ZM597.178 203.62C597.178 202.08 596.788 200.81 596.018 199.82C595.248 198.83 594.178 198.34 592.818 198.34C591.478 198.34 590.428 198.83 589.678 199.82C588.928 200.81 588.558 202.07 588.558 203.62V207.21C588.558 208.78 588.938 210.06 589.688 211.05C590.438 212.04 591.498 212.53 592.848 212.53C594.208 212.53 595.268 212.03 596.028 211.05C596.788 210.06 597.168 208.78 597.168 207.21V203.62H597.178Z" fill="black"/>
<path d="M622.048 220.21H618.078V215.34H606.158V220.21H602.198V212.29H603.358C604.388 212.29 605.138 211.6 605.588 210.22C606.038 208.84 606.338 206.65 606.468 203.63L606.918 195.52H619.698V212.29H622.048V220.21ZM610.448 203.63C610.358 205.55 610.148 207.22 609.818 208.67C609.488 210.11 609.048 211.32 608.488 212.29H615.738V198.59H610.718L610.448 203.63Z" fill="black"/>
<path d="M635.088 206.63H627.738V212.29H636.478V215.34H623.768V195.53H636.448V198.59H627.738V203.57H635.088V206.63Z" fill="black"/>
<path d="M653.468 207.06H652.218V215.33H648.258V207.06H646.938L642.478 215.33H637.528L643.778 204.65L637.858 195.52H642.768L647.258 203.62H648.268V195.52H652.228V203.62H653.178L657.578 195.52H662.478L656.638 204.64L662.798 215.34H657.858L653.468 207.06Z" fill="black"/>
<path d="M683.178 220.21H679.208V215.34H667.288V220.21H663.328V212.29H664.488C665.518 212.29 666.268 211.6 666.718 210.22C667.168 208.84 667.468 206.65 667.598 203.63L668.048 195.52H680.828V212.29H683.178V220.21ZM671.568 203.63C671.478 205.55 671.268 207.22 670.938 208.67C670.608 210.11 670.168 211.32 669.608 212.29H676.858V198.59H671.838L671.568 203.63Z" fill="black"/>
<path d="M695.438 211.06H689.018L687.688 215.33H683.538L690.218 195.52H694.288L700.938 215.33H696.788L695.438 211.06ZM689.998 207.95H694.478L692.288 200.97H692.208L689.998 207.95Z" fill="black"/>
</svg>
