<svg width="200" height="63" viewBox="0 0 200 63" fill="none" xmlns="http://www.w3.org/2000/svg">
<path fill-rule="evenodd" clip-rule="evenodd" d="M51.4122 29.3435C51.4625 29.3716 51.5072 29.3998 51.5491 29.428H47.7084C46.9318 29.428 46.295 30.0702 46.295 30.8533C46.295 31.6364 46.9318 32.2787 47.7084 32.2787H52.0128C53.1999 32.5266 56.3675 31.8871 63.0071 32.0477C65.7361 32.1125 66.8646 32.0815 62.197 31.1266C59.7418 30.6252 60.4233 31.9209 58.3786 30.397C57.6384 29.8449 56.6775 30.1576 55.5351 29.8167L52.4206 29.459L52.4234 29.428H52.1413L51.4122 29.3435ZM110.836 29.5069H108.278V29.5125L107.498 29.4984C106.948 29.8392 106.065 29.8449 105.711 30.397C104.727 31.9209 105.054 30.6252 103.875 31.1266C101.632 32.0787 102.174 32.0392 103.487 32.0477C106.132 32.0646 107.683 32.3913 108.414 32.3604H110.839C111.615 32.3604 112.252 31.7181 112.252 30.935C112.25 30.1491 111.613 29.5069 110.836 29.5069ZM101.278 50.1208L103.543 54.9264L96.0486 52.1208C95.9788 52.1828 95.909 52.2532 95.8419 52.3377C95.233 53.1039 96.138 53.718 96.5235 54.2588C94.6548 55.5658 92.6241 56.6503 90.4649 57.4757L89.4956 61.7433C89.4007 62.3855 89.5431 63.4728 88.1493 62.7742L86.113 62.1771C85.2945 61.9489 85.4817 62.0419 85.8672 61.1968C87.2219 58.2222 87.8448 55.0813 88.9677 52.0138C86.666 52.6504 80.5823 50.2532 82.3309 49.2476C81.7611 49.225 88.9398 50.4532 85.9845 48.749C85.4035 48.4138 85.8588 47.856 86.9901 47.918C89.1241 48.9405 90.0235 48.7293 91.3448 47.6448C93.9844 45.4786 83.6437 48.6081 78.0237 46.98C76.0768 49.3659 73.7891 50.1631 72.5377 53.2983C72.1187 54.3489 73.0628 54.8842 74.1215 54.8504C76.0014 52.994 76.912 51.6785 78.5125 49.8673C79.5153 48.7293 80.8505 48.1715 79.4231 51.5546C77.5879 55.9095 77.5656 57.3827 76.993 59.394C75.6745 59.0447 72.4455 58.1968 71.1606 57.7461C68.2472 56.7236 65.549 55.2306 63.1579 53.3602C63.5881 53.1799 63.5657 53.1546 63.2808 52.8053C63.2305 52.9433 63.1803 53.0785 63.0909 53.3067C62.2361 52.6335 62.5155 52.8532 61.8814 51.918C62.2278 51.5856 62.8786 51.6954 62.7641 50.9433C63.0127 50.856 63.225 50.7884 63.4372 50.6983C63.2054 50.5969 62.3702 50.3405 62.2473 50.6532C62.035 51.1856 61.6719 50.6419 61.4596 51.0081C61.2753 51.3236 60.8563 51.2532 60.7501 51.225L53.6999 53.1968L57.3004 47.149C54.5044 43.118 52.7167 38.3237 52.3061 33.1378H58.2083L58.3535 34.2533C59.5015 41.6955 64.2277 47.9434 70.7025 51.1546L77.6801 45.0138C75.1438 44.7011 71.8841 43.7152 71.0796 42.78C71.1774 42.5913 70.9483 42.38 71.2416 42.3518C72.0377 42.2758 71.3673 41.6082 71.5712 41.5434C71.7863 41.4758 72.2472 41.5941 72.7863 41.7997C73.8701 42.2138 74.8617 41.7096 75.7109 41.4251L74.7192 39.9152C73.6662 40.0307 72.4511 40.2561 71.2751 39.9688C70.1634 39.6983 70.6997 38.5406 70.7053 38.5378C71.926 38.2476 71.4595 38.011 71.7444 38.0561C71.1495 37.0984 69.7556 35.7463 69.4483 34.8787C69.3729 34.6674 70.1159 32.9406 70.2752 32.7378C69.8813 32.5153 68.9819 32.628 68.8115 32.4928C68.602 32.3266 67.3283 28.6956 67.3841 28.3266C67.5042 27.5266 69.1467 26.9294 69.2724 26.4026C69.412 25.0843 65.7054 27.2364 66.4624 20.4506C66.5573 19.5886 66.9037 19.0111 66.7501 18.4506C66.7445 17.0478 66.1886 17.1436 66.8534 15.6816C65.9177 15.4055 61.3954 6.9408 63.0853 6.93235L64.197 6.92671C66.4819 11.8788 72.3729 13.9943 70.4316 15.9999C70.3199 16.1154 69.4316 15.8506 69.0908 16.1098C66.7082 17.9351 67.5406 21.0731 69.8254 23.1125L69.8003 21.7379C70.3087 21.3013 71.7807 20.614 72.3282 19.9942C72.4399 18.4365 72.2081 18.1773 72.1355 16.783C72.1439 16.783 72.1494 16.783 72.1578 16.783V16.6619L73.9287 16.445C73.9762 17.5097 74.1801 18.1802 74.3868 19.1351L76.5013 18.7238C73.4651 17.1407 75.1606 14.0534 72.1662 15.9182C72.0656 15.8422 70.6243 11.2619 70.4204 10.7098C68.3869 11.4365 66.4512 9.98585 65.8925 8.52952C65.2221 6.78305 65.6691 3.93237 69.2808 3.04787L81.7136 0C83.9258 1.14365 84.6856 2.72111 84.9929 4.26476C85.2052 3.81688 85.437 3.36618 85.708 2.8704C87.9761 3.30139 88.9062 3.66195 90.9481 4.60561C91.0179 4.49856 91.9677 2.29858 94.1576 1.42253C95.8643 0.740841 95.5542 0.599998 96.8363 1.58591C97.962 2.45069 99.5542 3.25632 101.183 3.95209C103.25 6.33799 99.191 9.84783 102.124 12.8619C102.551 13.3013 102.814 12.8196 103.317 13.0027C106.828 14.2901 106.102 18.8196 106.283 19.3717C107.532 23.2196 108.529 27.6815 108.607 28.7153H103.107C102.951 26.9097 102.73 25.5463 102.227 24.0111C102.576 23.7829 103.37 22.8506 103.236 22.6703C103.102 22.4872 102.199 23.0477 101.901 23.0956L101.892 23.0703L101.786 23.1182C101.16 23.3351 100.702 23.7153 100.141 24.0815C98.8726 24.9097 102.322 28.1857 102.956 29.8843L102.171 32.4223C101.97 33.0758 101.766 33.4787 101.171 33.5829C100.241 33.7434 99.4536 33.704 100.744 34.9096C101.247 35.3801 101.521 35.9744 101.275 36.3716L99.9369 38.5519C99.6212 39.0645 99.9899 39.7941 99.3475 39.9575C98.5737 40.1547 97.3112 40.6702 97.0151 41.5913L96.1687 44.2194C95.395 46.6279 93.2665 46.1321 91.909 50.4307C98.0067 46.8786 102.303 40.535 103.074 33.1294H104.618C104.61 33.1744 104.604 33.242 104.59 33.2843C104.766 33.2843 104.942 33.3068 105.118 33.3294C105.118 33.2618 105.118 33.197 105.118 33.1294H105.113H106.454C106.546 33.6843 106.627 34.1941 106.724 34.704C107.576 34.3885 107.624 34.3716 107.345 33.1294H108.596C108.501 34.3294 108.333 35.5096 108.093 36.6646C107.13 36.1885 106.222 36.273 105.16 36.5434C105.643 36.8674 107.431 38.3772 107.44 38.3744C106.342 43.2617 104.375 46.8391 101.278 50.1208ZM114.942 41.0758V40.6842C114.931 40.2364 114.976 39.7997 115.023 39.3519C114.931 39.18 114.967 39.0223 115.046 38.8645C115.057 38.2984 115.068 37.7293 115.068 37.1744L115.09 36.4082C115.018 36.1012 115.174 36.2195 115.101 35.9322C114.97 35.4082 115.057 35.166 115.018 34.5913C114.962 34.6026 114.903 34.6251 114.842 34.6505C114.9 34.6167 114.959 34.5913 115.015 34.5716C114.987 34.1294 114.928 33.6871 114.928 33.2533C114.78 32.766 114.847 32.2646 114.858 31.7632C114.858 31.6167 114.858 31.459 114.858 31.3153C114.814 30.1407 114.858 28.9547 114.803 27.7801C114.733 26.1829 114.769 24.5858 114.722 22.9914C114.688 22.1999 114.722 21.4083 114.722 20.6168C114.722 20.2618 114.666 19.9041 114.688 19.5351C114.744 18.5858 114.733 17.6365 114.744 16.6844C114.755 15.9971 114.8 15.9323 115.339 15.9323C115.956 15.9182 116.574 15.9069 117.177 15.9323C117.484 15.9464 117.761 15.7858 118.068 15.7745C118.263 15.7605 118.342 15.5492 118.342 15.3379C118.342 14.321 118.386 13.2929 118.286 12.2901C118.23 11.7351 118.194 11.7351 117.727 11.6168H117.213C117.087 11.5915 116.962 11.5633 116.836 11.552C116.185 11.6844 115.523 11.6703 114.872 11.6168C114.554 11.5915 114.244 11.6168 113.937 11.6168C112.805 11.6563 111.674 11.6957 110.557 11.5774C110.04 11.5295 109.953 11.752 109.736 11.4985C109.04 11.4985 109.141 11.5633 108.319 11.4844C108.171 11.4844 108.023 11.4844 107.875 11.4844C107.794 11.5098 107.727 11.4844 107.646 11.4309L107.143 11.445C106.702 11.5605 107.13 14.2337 107.155 14.9295C107.166 15.2731 107.236 15.5774 107.451 15.814C107.783 15.814 108.102 15.814 108.434 15.8281C108.548 15.8027 108.652 15.814 108.741 15.8929C108.99 16.0393 110.398 15.4703 110.442 16.29C110.498 17.1858 110.498 18.0844 110.487 18.9942C110.476 19.0985 110.465 19.2196 110.453 19.3379C110.509 19.4844 110.523 19.6421 110.535 19.814C110.616 20.6731 110.649 20.7238 111.311 20.8703C111.398 21.1379 110.9 20.9238 110.9 21.2393C110.9 22.1379 111.898 21.5689 112.25 21.9266C111.828 22.521 111.37 22.6787 110.789 22.1773C110.811 22.7322 110.833 23.1942 110.845 23.6562C110.856 23.9604 111.015 24.0506 111.233 24.1041C111.451 24.1435 111.78 23.9576 111.839 24.3294C111.872 24.6196 111.495 24.566 111.359 24.766C111.177 25.0167 110.833 24.8984 110.616 25.228C111.004 25.3069 111.085 25.8365 111.448 25.9266C111.663 25.9886 111.643 26.5998 111.677 26.9041C111.291 27.0871 111.135 26.3097 110.786 26.997C110.66 27.2336 110.73 27.3407 110.9 27.4731C111.141 27.6702 111.37 27.8421 111.758 27.9209C111.21 28.1069 110.811 28.2055 110.677 28.8026C111.621 28.8026 111.733 29.059 111.967 29.1322C112.565 29.1576 113.174 29.2421 113.716 29.3829C113.627 29.3914 113.537 29.4026 113.448 29.4139C113.222 29.8167 113.258 30.2449 113.269 30.6618C113.286 31.0421 113.434 31.0984 114.107 31.1125C114.52 31.1237 114.702 31.2871 114.657 31.6308C114.613 31.9604 114.342 32.0759 113.828 31.9632C113.25 31.859 113.25 31.8589 113.115 32.2082C112.602 33.5801 113.417 34.2618 112.769 34.2646C112.378 34.2674 112.507 33.9772 112.498 33.8111C112.456 33.4758 112.459 33.1463 112.439 32.8111C112.423 32.6392 112.465 32.5491 112.325 32.4674C112.191 32.6026 112.037 32.7181 111.87 32.8111C111.881 33.0787 111.333 33.1125 111.155 33.1068C111.157 33.9153 111.169 34.7237 111.199 35.5265C111.23 36.3124 111.107 37.0758 110.859 37.8195C110.833 37.8983 110.825 37.9772 110.666 38.0054C110.674 38.1321 110.688 38.2561 110.705 38.3829C110.775 38.8843 110.694 39.3997 110.716 39.9012C110.772 41.1688 110.761 42.4476 110.772 43.7265C110.772 43.78 110.772 43.8194 110.772 43.873C110.886 44.4392 110.875 45.0082 110.772 45.5744C110.783 45.7067 110.794 45.8251 110.805 45.9434C110.861 46.0758 110.861 46.1941 110.817 46.3124C110.828 46.4589 110.839 46.6025 110.85 46.7349C110.9 47.4025 110.97 47.3603 111.741 47.38C111.744 46.7912 111.923 46.5321 112.406 46.6701C112.889 46.7884 112.889 46.7884 112.979 46.1941C113.104 45.3011 113.104 44.4082 112.979 43.5124C112.942 43.2335 112.836 42.7575 113.141 42.718C113.465 42.6786 113.372 43.1744 113.392 43.4532C113.445 44.0082 113.465 44.5659 113.498 45.1208C113.515 45.2983 113.498 45.5575 113.588 45.656C114.311 46.4166 113.758 47.2194 114.143 47.3434C114.286 47.3828 114.375 47.3039 114.465 47.1856C114.627 46.9462 114.607 46.6504 114.607 46.3912C114.534 44.4053 114.465 42.4194 114.356 40.4533C114.283 39.1434 114.339 37.8533 114.498 36.5829C114.515 36.4251 114.515 36.2646 114.73 36.2251C114.786 37.842 114.858 39.4589 114.942 41.0758ZM123.16 36.1293C124.009 35.5941 125.163 36.3885 125.599 35.9124C125.872 35.611 125.252 34.7772 125.322 32.8927C125.35 32.1491 125.311 31.8421 124.554 33.1406C124.154 33.8251 125.241 33.597 123.978 34.2026C123.52 34.4223 123.794 34.673 123.518 34.9941L123.16 36.1293ZM129.733 46.211C129.786 46.9011 129.752 47.1208 129.138 47.1208C128.121 47.1208 127.104 47.1208 126.099 47.1208C126.029 47.1208 125.962 47.0955 125.903 47.0814C125.571 45.1406 125.696 43.1744 125.504 41.2223C125.411 41.1969 125.344 41.1575 125.286 41.1575C124.613 41.1434 123.951 41.1434 123.275 41.1575C122.942 41.1575 122.864 41.2364 122.805 41.6335C122.585 43.3237 122.476 45.056 122.28 46.687C122.235 47.042 122.188 47.1096 121.881 47.1096C121.146 47.1096 119.537 47.8081 119.674 47.0786C119.73 46.78 120.191 44.5772 119.635 45.349C119.504 45.5321 119.49 47.1377 118.66 47.0955C118.627 47.0927 118.59 47.0701 118.501 47.0307C118.512 46.8842 118.512 46.7265 118.534 46.5828C118.808 44.38 119.082 42.1885 119.356 39.9969C119.425 39.442 119.459 38.8871 119.515 38.335C119.56 37.9124 119.596 37.4899 120.029 37.3462C120.029 36.7913 119.761 36.9322 119.973 35.3012C120.389 32.0646 120.56 29.1519 120.853 25.9463C121.263 25.9463 121.311 25.6027 121.344 25.259C121.414 24.6928 121.481 24.1238 121.196 23.597C121.163 23.5322 121.163 23.4393 121.141 23.3322C121.705 22.9548 121.222 22.2703 121.724 21.3407C121.892 21.028 121.895 20.4844 121.895 20.1013C121.973 20.0562 122.526 19.8731 122.18 19.5999C121.928 19.4027 121.895 19.1379 121.884 18.8337C121.861 18.4252 121.803 18.0281 121.814 17.6196C121.814 17.2759 121.895 16.9464 121.951 16.6168C121.973 16.3914 122.146 16.1548 121.939 15.9436C122.113 14.4027 121.962 14.814 122.339 14.5717C122.132 14.3746 122.099 14.1239 122.132 13.8337C122.473 10.9549 121.878 11.6985 124.554 11.5774C124.839 11.5633 124.931 11.8027 125.068 12.014C125.604 11.8084 125.185 11.5211 126.473 11.6056C126.668 11.6196 126.769 11.7633 126.791 11.9887C126.825 12.476 126.861 12.9661 126.906 13.5464C126.529 13.321 126.255 13.4929 125.959 13.6788C126.004 13.8112 126.051 13.9295 126.107 14.076C126.381 13.9971 126.632 13.9182 126.917 13.8393C126.939 14.0112 126.973 14.1295 126.987 14.2478C128.093 25.9829 128.682 33.2449 129.733 46.211ZM78.6103 31.3773L83.9426 30.473L84.5795 31.9378L79.1382 32.4251L78.6103 31.3773ZM82.5795 5.99715C82.5907 6.25912 82.303 7.74643 82.4035 7.74361C83.1605 7.72671 85.5795 9.29571 85.4258 12.2309C85.8616 11.6309 86.5906 10.8901 87.0208 10.2901C86.2973 7.65911 84.2527 6.56052 82.5795 5.99715ZM78.7806 7.67601C78.7304 7.26474 78.6326 6.86193 78.4566 6.49573C74.5908 8.23657 73.6131 13.5154 76.2025 16.6309C77.5013 18.1943 80.6885 19.8055 83.2527 18.9323C87.1772 17.5971 87.3308 15.4619 87.7722 15.0281C88.5292 15.7323 89.6688 19.583 91.0682 20.2168C91.4649 20.3971 91.666 20.0393 91.828 19.6393C91.599 18.8365 88.6995 13.9239 87.9454 13.3577C87.1996 13.6619 86.6912 14.2112 86.2778 14.6478C83.9035 18.5548 79.7248 17.9689 77.8449 16.0478C75.331 13.4872 75.8449 9.58867 78.7806 7.67601ZM62.2808 9.0591C61.0239 10.1267 59.8619 11.3013 58.806 12.5718C59.2222 12.5098 59.6049 12.445 60.0099 12.5154C60.4959 12.6084 60.739 12.9492 60.6272 13.4563C60.5518 13.7774 60.4038 13.8703 60.1607 13.6816C59.8814 13.4563 59.6189 13.3802 59.3004 13.6253C59.0574 13.7774 58.6272 13.5492 58.5155 13.2478C58.4904 13.1661 58.4708 13.0901 58.4513 13.0084C54.9681 17.3717 52.7335 22.7942 52.2977 28.7209H58.1747C58.6245 23.552 60.6719 18.8844 64.278 15.0788C63.1914 13.3605 62.5015 11.1408 62.2808 9.0591ZM106.722 26.2674C106.677 26.7097 106.635 27.1322 106.59 27.5519C106.523 27.5519 106.459 27.5294 106.392 27.5294C106.305 27.0871 106.171 26.6674 106.722 26.2674ZM106.062 22.1435C106.018 22.1886 105.976 22.2534 105.931 22.2984C105.887 22.2083 105.822 22.1435 105.778 22.0759C105.959 21.9548 105.968 21.952 106.062 22.1435ZM107.009 35.7322C106.92 35.7322 106.833 35.7772 106.747 35.7547C106.643 35.7153 106.649 35.4674 106.833 35.4674C106.942 35.4674 107.032 35.535 107.118 35.5547C107.074 35.6223 107.051 35.6646 107.009 35.7322ZM107.886 28.4167C108.018 28.1942 108.129 27.9519 108.283 27.6421C108.68 28.2195 108.414 28.3745 108.107 28.5519C108.04 28.5069 107.976 28.4618 107.886 28.4167ZM105.909 34.6026C105.557 34.4927 105.336 34.4251 104.987 34.3153C105.579 34.0702 105.579 34.0702 105.909 34.6026ZM55.9178 18.1858C55.6049 18.1604 55.5574 17.5182 55.8256 17.4506C56.091 17.3858 56.334 18.1858 55.9178 18.1858ZM57.1692 18.6759C56.982 18.6759 56.8144 18.6393 56.9457 18.2619C56.8898 17.9802 56.7781 17.6224 56.4792 17.4337C56.2362 17.2816 56.1245 17.1689 56.3284 16.9069C56.4597 16.7548 56.2167 16.3971 56.5714 16.3407C56.9066 16.3041 57.1887 16.49 57.468 16.6224C57.6496 16.6816 57.3144 17.5802 58.0295 17.49C58.1412 17.4703 58.1971 17.6027 58.1608 17.7351C58.1049 18.0168 57.4122 18.659 57.1692 18.6759ZM73.6997 7.50418C74.2276 6.87601 74.8477 6.54925 75.317 6.07038C75.8729 5.50137 76.1103 4.97462 74.1718 5.74081C72.7584 6.29855 71.8059 8.5267 72.0182 9.3605C72.3617 10.6985 72.2807 11.5211 72.979 14.1041C75.4818 12.9999 72.3924 9.06473 73.6997 7.50418ZM78.8756 41.1011C78.4929 41.2842 78.5293 42.2138 78.9427 42.1547C81.9342 41.7293 82.7946 43.4194 79.8952 44.7546C80.0823 45.8222 84.7303 44.0927 88.9537 45.7575C88.8671 45.7546 90.4565 44.6927 89.5403 44.2279C88.8141 44.6335 88.2163 44.1406 87.5739 43.6589C87.3169 43.4673 87.2331 43.2842 87.6772 43.2194L88.3839 43.2476C88.5878 42.3913 88.3895 42.4927 88.4174 41.6533C88.4761 41.4927 89.099 41.6392 89.1604 41.7321C89.5682 42.3547 89.1995 42.5969 88.9146 43.4025C89.9062 42.749 90.6409 41.3011 90.733 41.4251C90.9677 41.7406 91.1548 43.8504 90.7023 44.9039C91.49 44.9631 92.6716 44.0645 93.2414 43.0617C94.2218 41.3378 95.9201 40.2702 98.3726 38.9631C98.5123 38.8899 98.8251 37.811 99.11 37.4815L100.032 36.411C100.261 36.1462 100.054 35.6984 99.8419 35.5519L98.3838 34.5491C97.8587 35.5209 95.3587 35.473 93.9928 36.4617C91.1855 38.4955 90.9621 40.3237 89.6576 40.6307C87.5822 40.073 84.9901 40.4026 84.8448 40.3885L82.1745 40.1744L78.8756 41.1011ZM88.0739 39.2505C88.5878 39.4026 90.1018 37.6448 87.6576 38.0364C87.4845 38.0645 86.5878 37.5941 86.3728 37.38C86.2415 37.2505 86.289 37.1688 86.4063 37.2026C87.7247 37.5688 87.504 35.0533 87.3839 34.7857C87.2973 34.4336 87.5208 34.5998 87.5878 34.6589C87.9482 34.9829 88.3783 35.4392 88.2582 36.4955C89.2638 36.8758 89.233 35.2026 88.9928 33.9209C88.9817 33.7068 89.2275 33.7688 89.3001 33.8702C89.5515 34.2167 90.2107 37.3012 89.8168 38.473C92.7358 38.1941 91.1409 35.935 96.8978 33.7603C97.705 33.4561 100.755 32.6984 100.747 31.3773L100.733 29.1604L97.7162 25.6562C96.4676 25.6477 95.3391 26.3153 95.3307 28.2787C95.3196 31.1406 90.5319 29.8871 88.7498 32.6336C88.5655 32.9181 86.0878 33.7294 81.5711 33.2505L77.8142 34.2308C77.141 34.4054 76.9315 35.6984 76.9343 35.6984C77.898 35.3124 79.7862 34.9603 80.5488 34.9181C81.9957 34.8336 82.0264 38.1012 81.0544 38.7152C79.8142 39.4983 77.7248 39.1744 77.6522 39.3124C77.2667 39.3519 77.8673 40.3406 78.9147 39.9772C80.6382 39.3744 84.2443 38.1152 88.0739 39.2505ZM101.082 21.9266C103.669 21.5548 103.853 20.2083 101.146 21.4534C100.565 21.721 99.719 21.8703 99.5067 21.783C99.2972 21.6956 99.3084 21.5154 99.4536 21.5463C99.8195 21.6224 100.532 21.2928 100.646 21.2675C99.4927 20.2759 100.004 20.1548 99.3531 18.7323C99.0821 18.3492 99.4229 18.3971 99.5179 18.4619C100.342 19.0252 100.711 19.8618 101.102 21.228C101.806 19.9914 101.406 18.3407 100.697 17.2168C100.577 16.9633 100.881 16.8985 101.012 16.983C101.44 17.2534 102.124 18.0506 102.049 19.6618C102.037 19.8928 101.979 20.1379 101.965 20.3689C102.107 20.0759 103.096 17.7886 103.272 17.8027C103.551 17.8252 103.666 18.3802 103.87 18.5097C103.928 18.5464 104.993 18.4196 104.968 18.2196C104.593 17.6619 104.16 16.3323 103.621 15.5661C101.434 12.4619 97.5793 17.2281 96.3112 18.4619C95.0011 19.7351 95.0067 20.2337 90.9565 21.983C89.7163 22.5182 88.504 22.5999 86.8839 23.5829C86.1018 24.059 84.2191 24.7914 84.3225 25.5942C84.3923 26.1463 83.4454 26.921 83.3365 26.9041L82.6102 23.8252L77.1075 25.2843L78.0516 29.8759C78.9482 29.828 80.613 29.7435 80.6047 29.6787L80.4873 28.766C83.6605 27.4928 86.3113 25.4336 87.6856 24.6703C91.9397 22.0477 92.6827 25.7829 90.9174 27.7238C89.99 28.7463 87.6185 30.4252 86.423 30.4815C86.3979 30.5068 86.5236 30.6815 86.5124 30.7153C91.1492 30.9829 94.1073 24.5153 95.0766 25.8055C95.1771 25.9379 92.923 28.3886 92.5766 28.4308C92.6772 28.4928 92.5487 28.597 92.6464 28.6111C93.328 28.7181 95.7944 25.5632 96.1408 24.8139C96.5179 24.152 100.149 22.2506 101.082 21.9266ZM93.4928 12.0196C92.4928 13.6703 93.219 14.6816 91.0962 15.2055C94.3224 24.7858 97.6073 8.13798 97.5458 11.6112L97.7218 12.5774C98.9229 12.352 99.6715 7.1577 99.4452 5.49856C99.2581 4.11828 97.152 4.08166 95.9369 2.74928C94.8056 1.50985 92.0012 5.6732 88.3504 7.14362C86.5739 7.8591 87.8113 8.97741 87.6521 9.2929C87.9398 9.32388 88.9677 7.24221 90.504 7.72953C92.4006 8.32952 91.8615 11.1689 91.5319 11.2929C89.6632 12.0056 88.5264 12.7548 88.4621 13.1379C92.409 14.6534 91.8001 11.1802 93.6548 10.5211C95.4257 9.77177 96.4117 10.983 98.4145 8.36333C98.2776 9.3098 97.6771 10.2168 96.6771 10.4309C95.8475 10.6535 94.6269 11.0788 93.4928 12.0196ZM75.9483 32.6082L71.5321 33.2054L73.5796 36.8815C73.655 36.9969 73.7276 37.1181 73.7975 37.2505C73.9986 37.211 75.3393 36.8674 75.4064 36.7519C76.3812 35.0505 76.5852 34.442 75.9483 32.6082ZM70.2109 27.6533L74.5852 26.4843L75.669 30.5745L70.8198 31.4336L70.2109 27.6533ZM70.6914 22.2815C71.7193 21.7182 73.0321 21.197 74.2947 20.8647C74.4986 23.4449 73.9092 23.6421 74.9846 24.2449L70.5992 25.3548L70.6914 22.2815ZM82.4147 22.197L76.8086 23.3604L76.5237 20.0928L81.6745 20.6449L82.4147 22.197ZM83.937 22.0562C83.694 20.7914 83.9035 21.4985 83.4985 20.2562L87.1996 18.7689C88.1409 20.2985 88.1912 20.059 88.7386 21.0196C87.6158 21.152 84.8365 21.6646 83.937 22.0562ZM77.9957 13.7802C78.7807 13.645 78.8505 13.5492 79.6577 13.4901C80.4231 13.4337 80.9678 13.4422 81.4678 13.645L84.2052 15.9745L82.4147 16.445L81.2639 13.8224L79.9957 13.721L81.1857 16.6562C79.2555 16.5013 78.4427 15.3013 77.9957 13.7802ZM79.6941 9.06191C78.9985 9.00276 80.3169 7.1408 79.4734 5.39996C79.208 4.85349 80.6577 3.8535 81.3002 5.07884C81.789 6.00841 81.1661 9.18868 80.4426 9.1267L79.6941 9.06191ZM71.5098 5.26194C72.7807 8.95206 69.5349 10.7013 67.5825 8.51262C66.9288 7.77742 66.6439 4.66758 68.9484 4.69856C68.9539 4.69856 69.3282 5.49574 69.1774 5.57461C66.6188 7.42531 71.2053 10.2168 70.4204 6.16616L70.0042 4.61406C71.102 4.39997 81.3169 0.904219 81.6326 1.39436C83.3225 1.34084 85.0236 8.29572 81.1493 2.92111C77.8281 3.79434 74.912 4.49011 71.5098 5.26194ZM96.0821 9.3098C95.9257 9.25065 95.9369 9.18304 96.043 9.14924C96.8922 8.86473 96.4983 6.74362 96.4341 6.35771C96.2302 6.09855 96.4872 6.13235 96.557 6.17461C97.1827 6.56052 96.9257 6.85911 96.9201 6.93517C96.9062 7.15207 98.1911 6.40841 97.4425 5.33236C97.3531 5.16053 97.5793 5.11828 97.6799 5.17461C99.4871 6.21123 97.0737 9.68445 96.0821 9.3098ZM11.7898 12.6534C11.8009 12.5351 11.8009 12.4168 11.8121 12.2985C11.706 12.0225 11.6697 11.7098 11.4462 11.5267C11.3764 11.5267 11.3149 11.5267 11.2451 11.5267C10.6417 11.5661 10.0384 11.5915 9.44901 11.4619C9.34286 11.4619 9.24789 11.4619 9.15292 11.4619C8.75069 11.476 8.34846 11.6056 7.93506 11.5013C7.8764 11.5154 7.80378 11.5267 7.74512 11.5408C7.58031 12.3915 7.42668 13.2309 7.36803 14.107C7.32054 14.6703 7.27306 15.2337 7.16691 15.783C7.04959 16.3717 7.04959 16.9605 7.01328 17.5492C7.04959 17.7576 7.06077 17.9802 6.91831 18.1633C6.83451 18.9745 6.85965 19.7999 6.83451 20.6252C6.91831 20.7548 6.87082 20.8224 6.76468 20.8731L6.74233 20.859L6.71999 21.7097C6.7563 21.8928 6.7563 22.0646 6.66133 22.2196C6.65016 22.8224 6.68368 23.4365 6.5915 24.0393C6.63898 24.1576 6.65016 24.2872 6.63898 24.4196C6.8401 24.6674 6.82893 24.6956 6.54401 24.8252C6.47418 25.1266 6.49653 25.4393 6.48535 25.7407C6.68647 25.8534 6.71999 25.7858 6.69764 26.2111C6.68647 26.5379 6.74513 26.8928 6.47418 27.1266C6.44625 27.1688 6.4267 27.3266 6.18927 27.335C5.99933 27.3491 5.76469 27.3886 5.70324 27.0872C5.63341 26.7604 5.89318 26.7463 6.04681 26.628C6.04681 26.459 6.03564 26.3012 6.03564 26.1435C5.88201 26.0505 5.88201 25.9604 6.03564 25.8815C6.02446 25.7125 6.03564 25.5407 5.96581 25.3829C5.72558 25.3491 5.62782 25.1379 5.85966 25.0308C5.87084 24.9914 5.88201 24.9379 5.89597 24.9013C5.87363 24.8618 5.85966 24.8224 5.84849 24.797C5.70603 24.7322 5.68369 24.6393 5.81218 24.521C5.78983 24.2844 5.76469 24.0506 5.74235 23.8139C5.68369 23.7351 5.65855 23.6449 5.68369 23.552C5.70324 23.1858 5.55799 23.3914 5.6362 23.0675C5.6362 22.9491 5.6362 22.8308 5.62503 22.7125C5.57754 22.6224 5.58872 22.5294 5.6362 22.4506C5.62503 22.1097 5.43509 21.8224 5.46023 21.4816C5.37643 21.3238 5.36525 21.1548 5.39039 20.9717C5.41274 20.6196 5.34291 20.5717 5.39039 20.121C5.42671 19.7633 5.25073 19.7773 5.27308 19.428C5.30939 18.6816 5.15576 17.9351 5.16693 17.1774C5.16693 16.5999 5.0133 16.0647 4.90716 15.5013C4.74236 14.5717 4.56359 13.6563 4.4351 12.7126C4.30381 11.7182 4.21164 11.5605 3.3122 11.4281C3.1474 11.4027 2.96863 11.3887 2.815 11.4422C1.93512 11.7239 -0.187758 10.9013 0.0133575 12.1887C0.130675 12.9492 0.214474 13.707 0.426762 14.4534C0.580391 15.0027 0.711674 15.5802 0.792679 16.1548C0.946308 17.2534 1.26474 18.3154 1.37088 19.428C1.37088 19.4928 1.38206 19.5576 1.4072 19.6111C1.67814 20.2252 1.77311 20.9069 1.86809 21.5886C1.91557 21.6675 1.93792 21.7576 1.93792 21.8506C2.05523 21.9942 2.04406 22.1914 2.11389 22.3492C2.24518 22.6618 2.46305 22.5013 2.4435 22.3097C2.42115 21.9435 2.6083 21.7351 2.84573 21.5492C2.79824 21.4844 2.7759 21.4196 2.73959 21.3914C2.64461 21.3125 2.49098 21.3125 2.51612 21.1154C2.57478 20.6337 3.00494 20.9125 3.6027 20.552C3.97421 20.3294 4.10549 21.2111 3.6865 21.2731C3.66974 21.2759 3.13902 21.152 3.3541 21.5097C3.53008 21.7858 3.4379 21.9294 3.20047 21.9407C2.90439 21.9548 2.83456 22.1379 2.8569 22.4506C2.95187 22.6337 2.80942 22.752 2.79824 22.9097C2.74517 23.5153 3.13902 22.8787 3.06919 23.5914C3.04684 23.8196 3.08595 24.5013 2.86808 24.5463C2.47702 24.6252 2.59713 24.9379 2.65579 25.1886C2.76193 25.659 2.6921 26.1717 2.8569 26.6167C3.0217 26.7069 3.05802 26.8252 2.9407 26.997C2.9407 27.2449 2.99936 27.4956 3.05802 27.7294C3.1502 27.9209 3.50494 28.1012 3.12785 28.7238C3.16416 28.8421 3.21165 28.9604 3.24517 29.09C3.5636 29.4167 3.59991 29.5745 3.42114 30.059L3.84572 32.7942C4.08315 33.7237 4.24795 34.6927 4.27029 35.673C4.31778 37.5181 4.35409 39.3659 4.37644 41.2251C4.38761 42.1547 4.4351 43.0842 4.36527 44.0279C4.37644 44.7997 4.40158 45.5715 4.42392 46.3462C4.44627 46.8053 4.48258 46.8448 4.83733 46.9884C5.29822 47.1603 5.75911 47.1067 6.20882 46.9349C6.31496 46.4758 6.27865 46.0053 6.25631 45.5462C6.20323 44.5744 5.4295 45.6363 5.46302 44.5631C5.47419 44.1969 5.61665 44.0532 5.90156 44.1434C6.21999 44.2223 6.21999 44.2223 6.27865 43.8279C6.36245 43.2392 6.36245 42.6504 6.27865 42.0617C6.25631 41.8786 6.18368 41.5631 6.3848 41.5378C6.59708 41.5124 6.53843 41.8392 6.5496 42.0223C6.56357 42.1856 6.60826 43.3997 6.68088 43.4758C7.15853 43.9772 6.79261 44.5068 7.0468 44.5884C7.33451 44.6814 7.35406 44.1068 7.35406 43.9603C7.39317 41.6476 7.54121 41.7209 7.67529 42.6335C7.80098 43.4955 7.90992 45.1068 7.89875 46.1744C8.35964 46.4363 8.52444 46.3321 8.52444 45.7434C8.53561 45.3772 8.51326 45.011 8.51326 44.6448C8.42947 44.4758 8.44343 44.2927 8.44343 44.1068C8.42109 41.7631 8.30098 39.4195 8.33729 37.0758C8.35964 36.0815 8.24232 35.073 8.52723 34.1181C8.73952 33.3716 8.76466 32.5463 9.10544 31.8533C9.14175 31.7885 9.14175 31.6956 9.15292 31.6308C9.18924 30.3604 9.39035 29.1294 9.53001 27.8731C9.4937 27.7801 9.50767 27.69 9.56633 27.6111C9.65012 27.3942 9.56912 27.0308 9.55515 26.8646C9.66688 26.7829 9.72275 26.6928 9.69761 26.5125C9.65292 26.2167 9.23114 26.2336 9.73392 25.8703C9.7451 25.7519 9.75627 25.6336 9.77023 25.5181C9.60543 25.335 9.44063 25.1125 9.47415 24.797C9.53281 24.3379 9.53281 23.828 9.80655 23.4365C9.89034 23.3322 10.0188 23.3182 10.125 23.2928C10.1725 23.0168 10.2199 22.7435 10.2674 22.4562C10.1725 22.3379 10.2199 22.259 10.3261 22.1942C10.4797 21.2252 10.6334 20.2562 10.7982 19.2872C10.7507 19.1041 10.787 18.9604 10.9406 18.8816C10.9518 18.645 10.963 18.4224 10.9881 18.1886C10.9769 18.0844 10.9881 17.9914 11.0468 17.9266C11.0579 17.7182 11.0691 17.521 11.0831 17.3238C11.0719 16.6309 11.1892 15.9745 11.4015 15.3351C11.4238 15.0591 11.449 14.7858 11.4853 14.5098C11.4741 14.09 11.4853 13.6844 11.7088 13.3436C11.7088 13.2394 11.7199 13.121 11.7199 13.0168C11.6473 12.876 11.6473 12.7464 11.7898 12.6534ZM43.6079 37.5293C43.6665 37.5068 43.7224 37.4617 43.7615 37.442C43.8201 37.5519 43.876 37.6645 43.9347 37.7744C43.6944 37.9575 43.7782 37.8617 43.6079 37.5293ZM40.8621 34.1575C41.1302 34.366 41.0213 34.3209 40.9012 34.5575C40.8258 34.4477 40.7475 34.3801 40.728 34.3125C40.728 34.2702 40.8425 34.1575 40.8621 34.1575ZM3.7284 19.7097C3.15299 19.0506 2.49657 19.7154 2.40439 19.1351C2.84293 19.1492 3.24237 19.1999 3.65857 19.121C3.7284 19.0957 3.8122 19.1745 3.88203 19.2252C4.02449 19.3041 4.17812 19.383 4.08315 19.6168C4.01331 19.8027 3.82337 19.8027 3.7284 19.7097ZM24.6164 46.1969C23.8762 37.4167 23.1667 28.4928 22.3232 19.7238C22.1472 17.983 21.9573 16.2281 21.7785 14.4731C21.7673 14.3548 21.731 14.2365 21.7087 14.0675C21.4126 14.1464 21.1528 14.2253 20.8707 14.3041C20.812 14.1605 20.7645 14.0422 20.717 13.9126C21.0243 13.7295 21.3092 13.5605 21.6975 13.783C21.65 13.2056 21.6137 12.7239 21.5802 12.2394C21.5578 12.0168 21.4489 11.8732 21.2506 11.8591C19.9182 11.7746 20.3483 12.0619 19.7953 12.2647C19.6528 12.0563 19.5578 11.8196 19.2645 11.8337C16.4964 11.9549 17.1109 11.2168 16.759 14.0732C16.7227 14.3605 16.759 14.6112 16.9713 14.8055C16.5858 15.0422 16.7366 14.6281 16.5579 16.1661C16.7702 16.3745 16.5942 16.6112 16.569 16.8337C16.5104 17.1605 16.4266 17.4872 16.4266 17.8281C16.4154 18.2337 16.4741 18.6252 16.4964 19.0337C16.5076 19.3351 16.5439 19.5971 16.8037 19.7942C17.1612 20.0647 16.5886 20.2478 16.5076 20.2928C16.5076 21.9323 16.0579 21.4393 16.0579 22.6224C16.0579 22.9632 16.0355 23.3041 15.7255 23.4984C15.7478 23.6027 15.7478 23.6956 15.7841 23.7604C16.0802 24.2844 16.0076 24.8477 15.9378 25.4111C15.9015 25.7519 15.854 26.0928 15.4294 26.0928C15.1277 29.2815 14.9517 32.1575 14.5188 35.3744C14.3009 36.9969 14.5774 36.8617 14.5774 37.4026C14.1277 37.5462 14.0914 37.966 14.0467 38.3857C13.9881 38.935 13.9518 39.4842 13.8819 40.0364C13.597 42.211 13.3149 44.3828 13.03 46.5687C13.0076 46.7124 13.0076 46.8701 12.9937 47.0138C13.0886 47.0532 13.1249 47.0786 13.1585 47.0786C14.2702 47.0786 15.3819 47.0927 16.4908 47.0927C16.8093 47.0927 16.8567 47.0279 16.9042 46.6729C17.1054 45.0589 17.2199 43.3349 17.4489 41.6589C17.5076 41.2673 17.5914 41.1885 17.9349 41.1885C18.6333 41.1744 19.3176 41.1744 20.0159 41.1885C20.0746 41.1885 20.1472 41.2279 20.2394 41.2533C20.4405 43.1913 20.3092 45.1406 20.6528 47.0673C20.7115 47.0814 20.7841 47.1067 20.8539 47.1067L24.3064 47.0814C24.6807 46.9912 24.65 46.6448 24.6164 46.1969ZM18.1137 37.0054C17.8288 37.0589 17.569 37.1885 17.2981 37.2814C17.2869 37.2561 17.2757 37.2167 17.2618 37.1885C17.6808 36.6533 18.0243 36.3462 18.0551 35.7603C18.1389 34.5294 18.2199 33.3125 18.3037 32.0815C18.4349 30.0787 18.5746 28.0871 18.7171 26.0843C18.7757 25.352 18.8483 24.6055 18.9294 23.8731C18.9405 23.69 19.0132 23.521 19.0606 23.3491C19.0969 23.3491 19.1305 23.3632 19.1668 23.3632C19.474 25.9181 19.6221 28.4984 19.6752 31.0618C19.7226 33.3519 20.136 35.5237 20.2953 37.7547C19.9293 37.8054 20.393 36.6899 18.1137 37.0054ZM19.8288 14.121C19.9601 14.3041 20.0774 14.4731 20.2422 14.7239C19.9824 14.7379 19.7925 14.7379 19.5802 14.7492C19.664 15.1689 19.3791 15.2478 19.1556 15.3633C19.1193 15.3379 19.0969 15.3238 19.0606 15.2985C19.1193 14.9971 19.178 14.6957 19.2506 14.3689C19.393 14.3689 19.5104 14.3689 19.6416 14.3689C19.6416 14.3436 19.6528 14.3041 19.6416 14.29C19.3763 14.045 18.9349 13.8816 18.7785 13.676C19.1333 13.707 19.4349 13.8055 19.5718 13.583C19.7031 13.3661 19.9238 13.6929 20.0578 13.3746C20.1332 13.1886 20.65 13.3436 20.7897 13.3999C20.6584 13.4534 20.5299 13.4901 20.3763 13.5436C20.4433 13.9886 20.0411 13.9239 19.8288 14.121ZM33.4934 18.8872C33.3175 20.1971 33.2923 21.4787 33.4236 22.7491C33.4599 23.0365 33.5661 23.259 33.8845 23.2337C34.8538 23.1689 35.8342 23.1801 36.7699 22.8139C37.3733 22.5773 37.4319 22.5125 37.4096 21.8449C37.3398 20.4309 37.3146 19.0168 37.1861 17.6027C37.08 16.3069 36.7951 15.0224 36.0632 13.9239C34.5968 11.7239 32.3035 11.4506 29.9292 12.2225C28.5103 12.6816 27.7309 13.9239 27.2114 15.2591C25.6918 19.1633 26.0354 30.1491 26.0522 34.504C26.0522 34.8054 25.9209 35.211 26.2756 35.3801C26.689 35.5772 26.8203 35.104 27.0214 34.935C27.7421 34.8815 27.5522 35.6167 27.9069 35.8899C28.0242 35.9941 28.0242 36.3209 28.0131 36.5322C28.0019 36.6899 27.8706 36.8477 27.7645 37.0561C27.4209 36.7406 27.1388 36.4927 26.8175 36.2195C26.3203 36.3885 26.2142 36.8223 26.2868 37.3857C26.4628 38.8505 26.5829 40.3434 26.7952 41.811C27.1164 43.9547 28.4572 46.5293 30.7672 46.9574C31.8203 47.1405 32.8845 47.1546 33.9459 46.9715C35.2001 46.749 36.4152 46.4082 37.3873 45.4645C37.6247 45.2561 37.7783 45.0589 37.7783 44.718C37.7895 43.3969 37.8258 42.073 37.8258 40.7519C37.8258 40.0279 37.5381 40.2279 37.6023 39.273C37.6386 38.6307 37.661 37.9772 37.58 37.335C37.3984 35.8082 37.5074 35.7575 37.7336 34.4533C37.8537 33.7688 37.4347 33.6392 37.1191 33.3012C36.2979 32.4223 37.7392 32.8167 37.7224 31.4561C37.7224 30.8815 37.7336 30.2899 37.7224 29.7153C37.7113 29.0871 37.58 28.4562 36.9431 28.4167C35.3649 28.3632 34.9515 29.2393 32.3091 29.0505C31.8482 29.0646 31.7532 29.1688 31.7532 29.6533C31.7532 30.6871 31.6471 31.4956 31.6694 32.5435C31.6778 33.228 32.0912 33.1604 32.5689 32.9632C32.7002 32.9096 32.7812 32.7406 32.865 32.6111C33.2672 31.9209 34.3594 31.1942 34.7979 31.3913C34.8566 31.4167 35.08 31.8054 34.9376 31.9716C34.6219 32.3435 34.1024 31.8984 34.5074 32.3463C33.9879 32.3209 33.7756 32.6082 33.6806 33.0392C33.6219 33.2871 33.527 33.5378 33.527 33.7857C33.5046 34.5716 33.4571 35.3688 33.5493 36.1547C33.7504 37.9885 33.6331 39.8082 33.5605 41.6392C33.5381 42.3462 33.3482 42.5293 32.6862 42.6335C32.094 42.7265 31.5158 42.4504 31.3259 41.8364C31.0884 41.104 30.9236 40.3181 30.8398 39.5462C30.675 37.8843 30.5801 36.2082 30.4488 34.5463C30.3315 33.0927 30.0717 31.6533 30.1778 30.1745C30.2141 29.5857 29.8482 28.9942 29.8343 28.3914C29.8231 27.7238 30.094 27.0195 30.1052 26.3519C30.1639 24.428 30.27 22.5041 30.3426 20.5773C30.3789 19.4252 30.7086 18.3379 31.0158 17.2506C31.3119 16.214 31.9208 16.5013 32.5158 16.3999C33.6275 16.2083 33.2588 15.3379 33.0828 14.5548C33.7085 15.0534 34.242 15.4055 34.6778 15.8506C35.0688 16.2562 34.9487 16.7154 34.4655 16.9126C34.3007 16.5858 34.1945 16.1802 33.7448 16.0619C33.6973 16.1548 33.6024 16.245 33.6275 16.2985C33.7588 16.6393 33.5437 16.8759 33.4041 17.1351C33.0856 17.6985 33.108 17.7633 33.7476 17.9351C34.2057 18.0506 34.6052 19.3858 33.7001 19.152C33.6136 19.121 33.5661 18.9773 33.4934 18.8872ZM27.4432 40.0814C27.136 39.9237 27.1583 39.6758 27.2309 39.4674C27.3008 39.2195 27.4069 38.9434 27.5745 38.7462C27.6471 38.6561 28.2253 38.4899 28.2728 39.2561C28.284 39.4645 28.1415 39.5688 27.9069 39.5321C27.7952 39.5152 27.5075 39.9744 27.4432 40.0814ZM29.2616 38.4082C28.9544 37.7941 28.6471 37.242 28.6108 36.5885C29.0605 37.0843 29.7365 37.4899 29.2616 38.4082ZM28.3985 33.6139C28.1192 32.6843 28.189 32.9575 28.351 32.6449C28.7002 32.935 28.6108 32.6533 28.6108 33.5998C28.541 33.6026 28.4711 33.6026 28.3985 33.6139ZM26.9349 33.2223C27.5829 32.6927 27.6499 33.4054 27.527 33.4702C27.2645 33.628 27.0745 33.4984 26.9349 33.2223ZM27.9963 37.9603C27.3147 37.0167 27.5941 38.2955 27.9963 37.9603V37.9603ZM49.8731 37.2702L49.51 33.0758H46.7978C46.2028 33.0758 46.4346 32.9322 46.1022 33.0702L46.1413 32.9688C45.1553 32.642 46.0883 32.5463 44.5268 32.6477C44.6609 33.3575 44.2 33.4899 43.8369 33.6899C43.7782 33.6449 43.7419 33.6223 43.6833 33.5801C43.7782 33.0702 43.876 32.5604 43.9905 32.0054C44.2196 32.0054 44.4123 32.0054 44.6246 32.0054C44.6246 31.9604 44.6442 31.8956 44.6246 31.873C44.1805 31.4477 43.4794 31.1857 43.2224 30.8308C43.8118 30.8871 44.2894 31.0505 44.5073 30.6759C44.5436 30.6083 44.6274 30.566 44.7084 30.5463C44.8201 29.9294 45.2 29.4026 45.7168 29.0928C45.7754 28.9519 45.8285 28.8252 45.89 28.7012C46.0631 28.7688 46.0436 28.7773 46.0659 28.9238C46.295 28.8393 46.5408 28.7914 46.795 28.7914H49.1637L48.3369 19.721C48.1609 17.9802 47.9709 16.2252 47.7922 14.4703C47.781 14.352 47.7447 14.2337 47.7223 14.0647C47.4262 14.1436 47.1665 14.2224 46.8844 14.3013C46.8257 14.1577 46.7782 14.0393 46.7307 13.9098C47.038 13.7267 47.3229 13.5577 47.7112 13.7802C47.6637 13.2027 47.6274 12.721 47.5938 12.2365C47.5715 12.014 47.4626 11.8703 47.2614 11.8563C45.9291 11.7718 46.3592 12.0591 45.8062 12.2619C45.6637 12.0534 45.5687 11.8168 45.2754 11.8309C42.5073 11.952 43.1218 11.214 42.7699 14.0703C42.7336 14.3577 42.7699 14.6084 42.9822 14.8027C42.5967 15.0393 42.7475 14.6253 42.5688 16.1633C42.781 16.3717 42.6051 16.6083 42.5799 16.8309C42.5213 17.1576 42.4375 17.4844 42.4375 17.8252C42.4263 18.2309 42.485 18.6224 42.5073 19.0309C42.5185 19.3323 42.5548 19.5942 42.8146 19.7914C43.1721 20.0618 42.5995 20.2449 42.5185 20.29C42.5185 21.9294 42.0688 21.4365 42.0688 22.6196C42.0688 22.9604 42.0464 23.3013 41.7364 23.4956C41.7587 23.5998 41.7587 23.6928 41.795 23.7576C42.0911 24.2815 42.0185 24.8449 41.9487 25.4083C41.9123 25.7491 41.8649 26.09 41.4403 26.09C41.1386 29.2787 40.9626 32.1547 40.5297 35.3716C40.3118 36.9941 40.5883 36.8589 40.5883 37.3998C40.1386 37.5434 40.1051 37.9631 40.0576 38.3829C39.999 38.9321 39.9626 39.4814 39.8928 40.0336C39.6079 42.2082 39.3258 44.38 39.0409 46.5659C39.0185 46.7096 39.0185 46.8673 39.0046 47.011C39.0995 47.0504 39.1358 47.0758 39.1694 47.0758C40.2811 47.0758 41.3928 47.0898 42.5017 47.0898C42.8202 47.0898 42.8676 47.0251 42.9151 46.6701C43.1162 45.056 43.2308 43.3321 43.4598 41.6561C43.5185 41.2645 43.6023 41.1857 43.943 41.1857C44.6414 41.1716 45.3257 41.1716 46.024 41.1857C46.0827 41.1857 46.1553 41.2251 46.2475 41.2504C46.4486 43.1884 46.3173 45.1377 46.6609 47.0645C47.038 47.149 48.024 47.1039 48.4653 47.1039C48.4234 46.5237 48.2894 46.4504 47.7531 46.487C47.4123 46.5067 47.2503 46.2476 47.2698 45.6729C47.2866 45.118 47.5017 44.8983 47.9346 45.0363C48.4179 45.1546 48.4179 45.1546 48.5072 44.5603C48.6329 43.6673 48.6329 42.7744 48.5072 41.8786C48.4709 41.5997 48.3648 41.1237 48.6693 41.0842C48.9933 41.0448 48.9011 41.5406 48.9206 41.8195C48.9737 42.3744 48.9933 42.9321 49.0268 43.487C49.0435 43.6645 49.0268 43.9237 49.1162 44.0223C49.8396 44.7828 49.2866 45.5856 49.672 45.7096C49.8145 45.749 49.9039 45.6701 49.9933 45.5518C50.1553 45.3124 50.1357 45.0166 50.1357 44.7575C50.0631 42.7716 49.9933 40.7857 49.8843 38.8223C49.8731 38.3012 49.8648 37.7829 49.8731 37.2702ZM46.4402 12.4196C46.5883 12.476 46.5212 12.4788 46.605 12.8788C46.4737 12.8534 46.3927 12.8394 46.2615 12.814C46.3313 12.6534 46.3788 12.5351 46.4402 12.4196ZM45.8481 14.121C45.9793 14.3041 46.0967 14.4731 46.2615 14.7239C46.0017 14.7379 45.8117 14.7379 45.5995 14.7492C45.6833 15.1689 45.3983 15.2478 45.1749 15.3633C45.1386 15.3379 45.1162 15.3238 45.0799 15.2985C45.1386 14.9971 45.1972 14.6957 45.2698 14.3689C45.4123 14.3689 45.5296 14.3689 45.6609 14.3689C45.6609 14.3436 45.6721 14.3041 45.6609 14.29C45.3955 14.045 44.9542 13.8844 44.7978 13.676C45.1525 13.707 45.4542 13.8055 45.5911 13.583C45.7224 13.3661 45.9458 13.6929 46.0743 13.3746C46.1497 13.1886 46.6665 13.3436 46.8061 13.3999C46.6749 13.4534 46.5464 13.4901 46.3927 13.5436C46.4626 13.9886 46.0603 13.9239 45.8481 14.121ZM125.107 13.8816C125.233 14.0675 125.347 14.2393 125.506 14.49C125.255 14.5041 125.073 14.5041 124.867 14.5154C124.948 14.9379 124.671 15.0168 124.456 15.1351C124.423 15.1098 124.4 15.0957 124.364 15.0703C124.42 14.7661 124.478 14.4619 124.546 14.1323C124.682 14.1323 124.797 14.1323 124.923 14.1323C124.923 14.107 124.934 14.0675 124.923 14.0534C124.66 13.8027 124.241 13.645 124.087 13.4337C124.437 13.4675 124.724 13.5633 124.853 13.3408C124.978 13.1239 125.196 13.4478 125.322 13.1295C125.397 12.9436 125.892 13.0957 126.029 13.1548C125.903 13.2084 125.777 13.2478 125.629 13.2985C125.699 13.7492 125.311 13.6844 125.107 13.8816ZM187.081 46.211C186.363 37.3575 185.679 28.3716 184.866 19.5295C184.696 17.7745 184.511 16.0055 184.341 14.2393C184.33 14.121 184.296 14.0027 184.271 13.8309C183.986 13.9098 183.735 13.9886 183.461 14.0675C183.405 13.921 183.358 13.8027 183.313 13.6703C183.609 13.4844 183.883 13.3126 184.26 13.5379C184.215 12.9577 184.179 12.4675 184.145 11.9802C184.123 11.7549 184.02 11.6112 183.827 11.5971C182.539 11.5126 182.958 11.7999 182.422 12.0056C182.285 11.7943 182.193 11.5577 181.908 11.5689C179.232 11.6901 179.827 10.9464 179.486 13.8253C179.453 14.1154 179.486 14.3661 179.693 14.5633C179.316 14.8055 179.467 14.3943 179.294 15.9351C179.5 16.1464 179.327 16.383 179.305 16.6083C179.249 16.9379 179.168 17.2675 179.168 17.6112C179.157 18.0196 179.213 18.4168 179.238 18.8252C179.249 19.1295 179.282 19.3914 179.534 19.5914C179.88 19.8647 179.327 20.0478 179.249 20.0928C179.249 21.7379 178.816 21.2534 178.816 22.4421C178.816 22.7858 178.794 23.1294 178.497 23.3266C178.52 23.4308 178.52 23.5238 178.553 23.5914C178.838 24.1182 178.771 24.6872 178.701 25.2534C178.668 25.597 178.62 25.9407 178.21 25.9407C177.916 29.1463 177.749 32.0618 177.33 35.2955C177.12 36.9265 177.386 36.7857 177.386 37.3406C176.953 37.4871 176.916 37.9068 176.872 38.3293C176.816 38.8843 176.78 39.4364 176.713 39.9913C176.439 42.1828 176.165 44.3715 175.891 46.5772C175.869 46.7208 175.869 46.8814 175.858 47.025C175.95 47.0645 175.983 47.0898 176.017 47.0898C177.09 47.0898 178.165 47.1039 179.238 47.1039C179.545 47.1039 179.592 47.0391 179.637 46.6814C179.833 45.0504 179.942 43.318 180.162 41.6279C180.218 41.2307 180.299 41.1519 180.631 41.1519C181.305 41.1378 181.967 41.1378 182.643 41.1519C182.699 41.1519 182.768 41.1913 182.861 41.2166C183.056 43.1687 182.93 45.1349 183.26 47.0758C183.316 47.0898 183.386 47.1152 183.455 47.1152L186.791 47.0898C187.145 47.011 187.112 46.6504 187.081 46.211ZM183.025 12.1661C183.171 12.2225 183.106 12.2309 183.185 12.6281C183.059 12.6027 182.978 12.5887 182.852 12.5633C182.922 12.4027 182.969 12.2844 183.025 12.1661ZM180.034 15.4112C180.193 15.5351 180.129 15.5098 180.056 15.6478C180.011 15.583 179.964 15.5407 179.953 15.5013C179.953 15.4788 180.023 15.4112 180.034 15.4112ZM182.204 36.8279C181.735 36.8674 181.257 36.8815 180.799 36.9462C180.525 36.9998 180.274 37.1322 180.011 37.2223C180 37.1969 179.989 37.1575 179.978 37.1293C180.383 36.5885 180.715 36.2815 180.743 35.6899C180.824 34.4505 180.902 33.2223 180.983 31.9829C181.109 29.9632 181.246 27.9576 181.383 25.9379C181.439 25.1998 181.509 24.4477 181.59 23.7069C181.601 23.521 181.671 23.352 181.715 23.1801C181.749 23.1801 181.785 23.1942 181.819 23.1942C182.115 25.7717 182.26 28.3688 182.31 30.9547C182.333 32.1012 182.458 33.2364 182.539 34.3716C182.584 35.1491 182.643 35.9294 182.699 36.7603C182.511 36.7885 182.363 36.8139 182.204 36.8279ZM181.668 17.4168C181.701 17.4027 181.738 17.3774 181.76 17.3633C181.793 17.4281 181.83 17.4957 181.863 17.5604C181.718 17.6731 181.768 17.614 181.668 17.4168ZM182.455 13.8816C182.581 14.0675 182.696 14.2393 182.855 14.49C182.604 14.5041 182.422 14.5041 182.215 14.5154C182.296 14.9379 182.02 15.0168 181.805 15.1351C181.771 15.1098 181.749 15.0957 181.712 15.0703C181.768 14.7661 181.827 14.4619 181.894 14.1323C182.031 14.1323 182.145 14.1323 182.271 14.1323C182.271 14.107 182.282 14.0675 182.271 14.0534C182.009 13.8027 181.59 13.645 181.436 13.4337C181.785 13.4675 182.073 13.5633 182.201 13.3408C182.327 13.1239 182.545 13.4478 182.671 13.1295C182.746 12.9436 183.24 13.0957 183.377 13.1548C183.252 13.2084 183.126 13.2478 182.978 13.2985C183.048 13.7492 182.659 13.6844 182.455 13.8816ZM183.151 14.7661C183.221 14.5943 183.254 14.5013 183.288 14.4084C183.472 14.6337 183.472 14.6337 183.151 14.7661ZM164.637 21.4675C164.752 21.983 164.752 22.4308 164.364 22.7999C164.193 22.9576 164.056 23.1829 163.905 23.3801C163.5 23.9294 163.984 23.9745 163.883 24.5942C163.813 24.9632 163.665 25.321 163.632 25.69C163.506 26.9294 163.243 28.1435 163.299 29.397C163.31 29.8449 163.369 30.3068 163.369 30.7575C163.369 33.304 163.484 35.8392 163.676 38.3716C163.769 39.5857 163.824 40.7997 164.168 41.9885C164.453 43.0166 164.682 44.073 165.266 44.9715C165.791 45.7884 166.431 46.4504 167.299 46.78C168.453 47.2166 169.618 47.2166 170.794 46.8983C171.52 46.7039 171.316 45.9321 170.646 45.949C170.629 45.949 170.322 46.0729 170.165 45.949C169.858 45.6983 169.559 45.4476 169.274 45.1969C169.514 44.6955 169.581 44.5772 169.833 44.5237C170.28 44.4307 170.735 44.3518 171.182 44.2983C171.444 44.2589 171.64 44.3772 171.707 44.7068C171.525 44.8645 171.341 45.011 171.112 45.2082C171.489 45.3546 171.808 45.473 171.866 45.9068C171.889 46.0194 172.428 46.0729 172.551 45.5631C172.643 45.18 172.606 44.8504 172.369 44.5997C172.506 44.2025 172.643 43.8335 172.791 43.411C173.087 43.687 173.316 43.8983 173.567 44.149C174.254 43.0561 174.397 41.0054 174.492 39.7011C174.562 38.6983 174.629 37.6955 174.687 36.6927C174.71 36.2167 174.643 36.1519 174.229 36.0589C173.383 35.8561 172.14 35.6899 171.282 35.5716C170.838 35.5068 170.78 35.5716 170.735 36.0336C170.701 36.3237 170.679 36.6138 170.69 36.904C170.771 38.5659 170.439 40.1772 170.336 41.8138C170.324 41.9716 170.187 42.2223 170.084 42.2363C169.685 42.3152 169.478 42.5941 169.296 42.9631C169.182 42.8842 169.079 42.8589 169.023 42.7772C168.679 42.3011 168.316 41.8392 168.176 41.2335C168.034 40.6561 167.646 40.6561 167.651 39.7434C167.662 38.8448 167.651 37.9491 167.662 37.0505C167.679 36.1716 167.875 34.797 167.833 34.0026C167.674 30.2815 167.741 26.5463 167.752 22.8252C167.763 21.5069 167.833 20.1858 167.933 18.8788C167.978 18.2309 168.129 17.5858 168.277 16.952C168.347 16.5943 168.573 16.3576 168.95 16.3069C169.509 16.214 169.875 16.3999 170.048 17.0055C170.495 18.6168 170.472 20.4168 170.584 22.152C170.629 22.8787 170.824 23.0618 171.486 22.983L174.285 22.521C174.57 22.4675 174.707 22.2956 174.707 21.9942C174.682 20.721 174.338 18.5126 174.171 17.1633C173.78 14.0393 172.263 11.4168 168.813 11.5689C166.964 11.6478 165.559 12.5971 164.735 14.4844C163.981 16.2112 163.478 18.6872 163.763 20.6083C163.869 21.3097 163.718 21.6618 163.855 22.521C164.486 22.3492 163.972 21.5154 164.637 21.4675ZM168.051 46.3828C168.051 45.0729 169.014 45.642 168.051 46.3828V46.3828ZM171.615 43.4927C171.456 43.1885 171.478 43.0166 171.671 42.8194C171.81 43.0561 171.718 43.2138 171.615 43.4927ZM170.28 43.6363C170.383 43.9406 170.336 44.0589 170.028 44.0448C170.118 43.9011 170.176 43.7941 170.28 43.6363ZM173.282 43.0166C173.162 43.3997 172.894 43.2476 172.939 43.1096C173.009 42.9124 173.146 43.0025 173.282 43.0166ZM189.056 26.7857C188.629 27.2787 188.637 27.8505 189.112 28.304C189.553 28.7238 190.112 28.9998 189.648 29.597C189.419 29.8928 189.098 30.0111 189.226 30.535C189.419 31.3209 188.615 31.2928 188.735 32.6449C188.791 33.3575 188.872 34.0702 188.883 34.7829C188.939 37.9406 188.88 41.1011 188.894 44.2561C188.894 44.9546 188.916 45.656 188.964 46.3405C188.997 46.9349 189.171 47.0927 189.707 47.0927C191.089 47.1067 192.472 47.118 193.841 47.118C194.765 47.118 195.69 47.0927 196.617 47.0927C197.531 47.0927 198.433 47.118 199.346 47.118C199.771 47.118 199.975 46.9208 200 46.5349C199.581 46.5659 199.433 46.2898 199.517 45.7152C199.589 45.1265 199.589 45.1265 199.237 45.0082C197.852 44.5603 197.221 45.4166 197.184 44.7631C197.162 44.3687 197.455 44.4842 197.62 44.4673C197.95 44.4082 198.279 44.3941 198.606 44.3603C198.712 44.3406 198.863 44.3659 198.925 44.2589C199.274 43.5941 199.645 43.8138 199.768 43.7941C199.732 43.5547 199.682 43.2082 199.567 43.0335C199.288 42.9856 196.313 43.2054 195.852 43.2476C195.075 43.318 194.313 43.2335 193.564 43.0194C193.469 42.9941 193.377 42.9941 193.355 42.7293C194.475 42.6899 194.078 42.1011 194.078 41.318C194.078 40.549 194.137 42.1124 194.137 39.5434C194.137 38.5012 194.148 37.473 194.137 36.4279C194.137 35.9406 194.092 35.4505 194.092 34.9772C194.103 34.1463 194.162 33.3153 194.173 32.4956C194.184 32.0195 194.14 31.5463 194.14 31.0843C194.117 29.8449 194.117 28.6026 194.084 27.3491C194.062 26.4646 193.981 25.5942 193.958 24.7097L193.718 16.3041C193.684 15.4027 193.24 15.7971 192.598 15.3802C192.528 15.3267 192.45 15.1154 192.483 15.0647C192.738 14.6731 193.084 15.0253 193.305 15.1182C193.888 15.3605 193.788 14.4703 193.83 14.1943C193.964 13.3013 193.173 13.4816 192.883 12.4534C192.757 12.0056 192.483 11.7267 192.014 11.7408C191.162 11.7661 189.936 11.6394 189.045 11.583C188.564 11.5577 188.394 11.7295 188.416 12.2703C188.427 12.5464 188.427 12.8253 188.45 13.1013C188.645 15.3182 188.724 17.5351 188.657 19.752C188.645 20.1351 188.623 20.5182 188.634 20.8872C188.654 21.583 188.715 25.8787 188.805 26.2449C188.852 26.4167 188.941 26.5632 189.056 26.7857ZM192.553 13.6844C192.117 14.0506 191.763 14.4619 191.603 14.3689C191.288 14.2309 191.089 13.8196 190.813 13.5464C191.05 13.3182 191.327 12.8619 191.525 12.907C191.841 12.907 192.117 13.3182 192.553 13.6844ZM192.927 16.7182C192.827 16.8224 193.028 17.2337 192.654 17.0112C192.548 16.9464 192.494 17.1914 192.425 17.2703C192.31 17.1126 192.081 16.9013 192.106 16.8224C192.176 16.6112 192.358 16.4534 192.517 16.3492C192.564 16.3238 192.746 16.5351 192.927 16.7182ZM132.573 21.4675C132.688 21.983 132.688 22.4308 132.3 22.7999C132.129 22.9576 131.992 23.1829 131.842 23.3801C131.437 23.9294 131.92 23.9745 131.819 24.5942C131.749 24.9632 131.601 25.321 131.568 25.69C131.442 26.9294 131.18 28.1435 131.235 29.397C131.247 29.8449 131.305 30.3068 131.305 30.7575C131.305 33.304 131.42 35.8392 131.612 38.3716C131.705 39.5857 131.761 40.7997 132.104 41.9885C132.389 43.0166 132.618 44.073 133.202 44.9715C133.727 45.7884 134.367 46.4504 135.235 46.78C136.389 47.2166 137.554 47.2166 138.73 46.8983C139.456 46.7039 139.252 45.9321 138.582 45.949C138.565 45.949 138.258 46.0729 138.101 45.949C137.794 45.6983 137.495 45.4476 137.21 45.1969C137.45 44.6955 137.517 44.5772 137.769 44.5237C138.216 44.4307 138.671 44.3518 139.118 44.2983C139.381 44.2589 139.576 44.3772 139.643 44.7068C139.462 44.8645 139.277 45.011 139.048 45.2082C139.425 45.3546 139.744 45.473 139.802 45.9068C139.825 46.0194 140.364 46.0729 140.487 45.5631C140.579 45.18 140.543 44.8504 140.305 44.5997C140.442 44.2025 140.579 43.8335 140.727 43.411C141.023 43.687 141.252 43.8983 141.503 44.149C142.191 43.0561 142.333 41.0054 142.428 39.7011C142.498 38.6983 142.565 37.6955 142.624 36.6927C142.646 36.2167 142.579 36.1519 142.165 36.0589C141.319 35.8561 140.076 35.6899 139.219 35.5716C138.774 35.5068 138.716 35.5716 138.671 36.0336C138.638 36.3237 138.615 36.6138 138.626 36.904C138.707 38.5659 138.375 40.1772 138.272 41.8138C138.26 41.9716 138.124 42.2223 138.02 42.2363C137.621 42.3152 137.414 42.5941 137.233 42.9631C137.118 42.8842 137.015 42.8589 136.959 42.7772C136.615 42.3011 136.249 41.8392 136.112 41.2335C135.97 40.6561 135.582 40.6561 135.587 39.7434C135.598 38.8448 135.587 37.9491 135.598 37.0505C135.615 36.1716 135.811 34.797 135.769 34.0026C135.61 30.2815 135.677 26.5463 135.688 22.8252C135.699 21.5069 135.769 20.1858 135.869 18.8788C135.914 18.2309 136.065 17.5858 136.213 16.952C136.283 16.5943 136.509 16.3576 136.886 16.3069C137.445 16.214 137.811 16.3999 137.984 17.0055C138.431 18.6168 138.408 20.4168 138.52 22.152C138.565 22.8787 138.76 23.0618 139.422 22.983L142.221 22.521C142.506 22.4675 142.643 22.2956 142.643 21.9942C142.618 20.721 142.274 18.5126 142.107 17.1633C141.716 14.0393 140.199 11.4168 136.749 11.5689C134.9 11.6478 133.495 12.5971 132.671 14.4844C131.917 16.2112 131.414 18.6872 131.699 20.6083C131.805 21.3097 131.654 21.6618 131.791 22.521C132.425 22.3492 131.911 21.5154 132.573 21.4675ZM135.99 46.3828C135.99 46.1236 135.917 45.6814 136.196 45.6307C136.35 45.6025 136.548 45.856 136.392 46.0673C136.322 46.1715 136.196 46.2222 135.99 46.3828ZM139.554 43.4927C139.395 43.1885 139.417 43.0166 139.61 42.8194C139.746 43.0561 139.657 43.2138 139.554 43.4927ZM138.216 43.6363C138.319 43.9406 138.272 44.0589 137.964 44.0448C138.057 43.9011 138.115 43.7941 138.216 43.6363ZM141.221 43.0166C141.101 43.3997 140.833 43.2476 140.878 43.1096C140.948 42.9124 141.084 43.0025 141.221 43.0166ZM132.962 27.6843C133.059 27.797 133.104 27.7322 132.973 27.935C132.828 27.8224 132.911 27.7801 132.962 27.6843ZM134.677 35.0589C134.596 35.0984 134.551 35.1237 134.506 35.1237C134.484 35.1237 134.425 35.0308 134.436 35.0195C134.596 34.8364 134.601 34.9744 134.677 35.0589ZM151.763 46.4476C151.73 46.3405 151.741 46.2363 151.819 46.1575C151.819 45.7997 151.797 45.4448 151.852 45.0898C151.771 44.8138 151.783 44.5237 151.783 44.2448C151.783 42.9659 151.794 41.6983 151.794 40.4195C151.783 39.9716 151.827 39.535 151.875 39.0871C151.799 38.9434 151.811 38.811 151.861 38.6786L151.839 38.2843C151.774 37.1237 151.794 35.9744 151.883 34.8364C151.894 34.2167 151.78 33.597 151.78 32.9913C151.632 32.504 151.699 32.0026 151.71 31.5012C151.71 31.3575 151.71 31.197 151.71 31.0533C151.665 29.8787 151.71 28.6928 151.654 27.5181C151.584 25.921 151.621 24.3238 151.573 22.7294C151.54 21.9379 151.573 21.1463 151.573 20.3548C151.573 19.9999 151.517 19.6421 151.54 19.2731C151.595 18.3238 151.584 17.3717 151.595 16.4224C151.607 15.7351 151.651 15.6703 152.19 15.6703C152.808 15.6562 153.425 15.645 154.028 15.6703C154.336 15.6844 154.612 15.5238 154.919 15.5126C155.115 15.4985 155.193 15.2872 155.193 15.076C155.193 14.0591 155.238 13.0309 155.137 12.0281C155.081 11.4732 155.045 11.4732 154.579 11.3549H154.065C153.939 11.3295 153.813 11.3013 153.688 11.2901C153.037 11.4225 152.375 11.4084 151.724 11.3549C151.403 11.3295 151.096 11.3549 150.788 11.3549C149.657 11.3943 148.526 11.4337 147.408 11.3154C146.892 11.2675 146.805 11.4901 146.587 11.2365C145.892 11.2365 145.992 11.3013 145.171 11.2225C145.023 11.2225 144.875 11.2225 144.727 11.2225C144.646 11.2478 144.579 11.2225 144.498 11.1689L143.995 11.183C143.554 11.2985 143.981 13.9717 144.006 14.6675C144.017 15.0112 144.087 15.3154 144.302 15.552C144.635 15.552 144.953 15.552 145.286 15.5661C145.4 15.5407 145.503 15.552 145.593 15.6309C145.841 15.7774 147.249 15.2084 147.294 16.0281C147.35 16.9267 147.35 17.8224 147.339 18.7323C147.327 18.8365 147.316 18.9576 147.305 19.0759C147.361 19.2224 147.375 19.3802 147.386 19.552C147.467 20.4111 147.501 20.4618 148.163 20.6083C148.249 20.8759 147.752 20.6618 147.752 20.9773C147.752 21.8759 148.749 21.3069 149.101 21.6646C148.679 22.259 148.221 22.4168 147.64 21.9154C147.663 22.4703 147.685 22.9322 147.696 23.3942C147.707 23.6984 147.866 23.7914 148.084 23.8421C148.302 23.8815 148.632 23.6956 148.691 24.0675C148.724 24.3576 148.347 24.3041 148.21 24.5041C148.028 24.7548 147.685 24.6365 147.467 24.966C147.855 25.0449 147.936 25.5717 148.302 25.6646C148.517 25.7266 148.498 26.3379 148.531 26.6421C148.146 26.8252 147.989 26.0477 147.64 26.735C147.515 26.9717 147.584 27.0787 147.755 27.2111C147.995 27.4083 148.224 27.5801 148.612 27.659C147.671 27.9773 147.52 28.0787 147.47 29.228C147.481 29.4252 147.481 29.6252 147.481 29.8083C147.584 30.3097 147.699 30.797 147.584 31.3125C147.545 31.6702 147.766 32.3463 148.372 32.3547C148.987 32.3632 148.805 32.9068 147.961 32.842C147.57 32.8111 147.445 32.8505 147.47 33.5688C147.503 34.0449 147.54 34.5068 147.47 34.9801C147.481 35.5463 147.503 36.1012 147.503 36.6702C147.503 37.1575 147.492 37.6476 147.559 38.1209C147.629 38.6223 147.548 39.1378 147.57 39.6392C147.626 40.9068 147.615 42.1856 147.626 43.4673C147.626 43.5209 147.626 43.5603 147.626 43.6138C147.741 44.18 147.73 44.749 147.626 45.3152C147.637 45.4476 147.649 45.5659 147.66 45.6842C147.716 45.8166 147.716 45.9349 147.671 46.0532C147.682 46.1997 147.693 46.3434 147.704 46.4758C147.755 47.1631 147.827 47.1039 148.718 47.1236C148.682 46.98 148.668 46.7997 148.674 46.58C148.696 45.9067 148.956 45.6448 149.475 45.811C150.062 45.9546 150.062 45.9546 150.168 45.2335C150.319 44.1518 150.319 43.073 150.168 41.9913C150.123 41.6561 149.995 41.0786 150.364 41.0307C150.755 40.9828 150.646 41.5828 150.668 41.918C150.732 42.5913 150.755 43.2617 150.799 43.9349C150.822 44.1518 150.799 44.4645 150.908 44.5828C151.808 45.5518 151.054 46.7377 151.707 46.6335C151.732 46.5687 151.749 46.5124 151.763 46.4476ZM160.914 46.9743C160.947 46.7772 160.97 46.6589 160.97 46.5518C160.992 44.8222 161.014 43.0955 161.003 41.3659C160.992 39.2279 160.911 37.0899 160.911 34.9519C160.9 30.704 160.911 26.4534 160.922 22.2055C160.933 20.6759 160.992 19.1435 161.003 17.6281C161.014 15.9661 160.981 14.3154 160.981 12.6534C160.981 11.6027 160.587 11.6253 159.746 11.6253C159.347 11.6253 158.936 11.6394 158.537 11.6394C155.811 11.6056 156.38 11.0619 156.47 14.8055C156.492 15.9548 156.526 17.1013 156.514 18.2506C156.492 19.4788 156.4 20.7182 156.366 21.9463C156.344 23.028 156.344 24.1097 156.389 25.1801C156.433 26.1435 156.618 26.29 157.45 26.2224C157.461 26.2224 157.484 26.2759 157.484 26.2618C157.255 26.6984 156.581 26.5914 156.651 27.397C156.696 27.8731 156.263 28.4139 156.799 28.7435C156.766 28.9012 156.674 29.0984 156.718 29.1407C157.132 29.5463 156.495 30.2449 156.478 30.8815C156.456 32.5181 156.456 34.166 156.467 35.8026C156.467 35.9209 156.512 36.0392 156.559 36.211C156.755 36.0646 156.903 35.9463 157.143 35.7632C157.073 36.1462 157.087 36.411 156.973 36.5941C156.892 36.7519 156.676 36.7913 156.503 36.8984C156.492 37.0843 156.47 37.2533 156.47 37.4392C156.481 40.104 156.492 42.7828 156.514 45.4617C156.517 45.9715 156.554 45.9575 156.685 46.149C156.833 46.056 156.97 45.9631 157.107 45.8729C157.481 46.3293 156.587 46.8814 157.358 47.0729L160.135 47.0589C160.386 47.0532 160.626 47.0025 160.914 46.9743ZM158.445 46.8166C158.662 46.0898 158.193 46.211 157.897 46.011C157.931 45.6955 157.978 45.3518 158.012 45.0476C158.47 44.8899 158.47 45.3518 158.674 45.5744C158.811 45.0589 158.959 44.5969 159.062 44.1096C159.174 43.6025 159.612 43.7011 159.598 44.149C159.59 44.4279 159.517 45.0082 159.668 45.2307C159.886 45.5603 159.771 45.7969 159.598 46.0758C159.347 46.487 158.959 46.6053 158.445 46.8166ZM157.657 43.8476C157.542 43.3603 157.486 43.0701 157.405 42.6983C157.794 42.7913 158.023 43.0279 158.079 43.3856C158.123 43.7011 158.249 44.0983 157.861 44.3349C157.757 44.3884 157.735 44.6504 157.665 44.8617C157.528 44.8363 157.403 44.8222 157.392 44.8082C157.174 44.3603 157.003 44.0025 156.822 43.6335C157.098 43.7039 157.313 43.7546 157.657 43.8476Z" fill="black"/>
</svg>
